<?xml version="1.0" encoding="utf-8"?>
<!-- Generator: Adobe Illustrator 23.0.1, SVG Export Plug-In . SVG Version: 6.00 Build 0)  -->
<svg version="1.1" id="Layer_1" xmlns="http://www.w3.org/2000/svg" xmlns:xlink="http://www.w3.org/1999/xlink" x="0px" y="0px"
	 viewBox="0 0 500 500" style="enable-background:new 0 0 500 500;" xml:space="preserve">
<style type="text/css">
	.st0{fill:#F5F5F5;}
	.st1{fill:#E6E6E6;}
	.st2{opacity:0.41;fill:#E89D05;}
	.st3{opacity:0.66;fill:#E89D05;}
	.st4{opacity:0.54;fill:#E89D05;}
	.st5{opacity:0.45;fill:#E89D05;}
	.st6{fill:#37474F;}
	.st7{fill:#455A64;}
	.st8{fill:#546AB4;}
	.st9{opacity:0.46;fill:#E89D05;enable-background:new    ;}
	.st10{opacity:0.59;fill:#E89D05;enable-background:new    ;}
	.st11{opacity:0.15;enable-background:new    ;}
	.st12{fill:#263238;}
	.st13{fill:#E0E0E0;}
	.st14{fill:#EBEBEB;}
	.st15{fill:#FFFFFF;}
	.st16{opacity:0.5;fill:#FFFFFF;enable-background:new    ;}
	.st17{opacity:0.5;}
	.st18{opacity:0.9;fill:#263238;enable-background:new    ;}
	.st19{opacity:0.6;fill:#FFFFFF;enable-background:new    ;}
	.st20{opacity:0.6;}
	.st21{opacity:0.8;fill:#FFFFFF;enable-background:new    ;}
	.st22{opacity:0.8;}
	.st23{opacity:0.9;}
	.st24{opacity:0.6;fill:#546AB4;enable-background:new    ;}
	.st25{opacity:0.7;}
	.st26{opacity:0.3;}
	.st27{fill:#009447;}
	.st28{opacity:0.75;fill:#009447;stroke:#009447;stroke-miterlimit:10;enable-background:new    ;}
	.st29{fill:#FFA8A7;}
	.st30{opacity:0.4;enable-background:new    ;}
	.st31{fill:#FAFAFA;}
	.st32{fill:#231F20;}
	.st33{opacity:0.4;}
	.st34{opacity:0.5;enable-background:new    ;}
	.st35{fill:#F28F8F;}
	.st36{opacity:0.75;fill:#FFFFFF;enable-background:new    ;}
	.st37{opacity:0.1;fill:#546AB4;enable-background:new    ;}
	.st38{opacity:0.3;enable-background:new    ;}
	.st39{opacity:0.2;enable-background:new    ;}
	.st40{fill:#00D411;}
	.st41{fill:#F0F0F0;}
</style>
<g id="freepik--Floor--inject-7">
	<ellipse id="freepik--floor--inject-7" class="st0" cx="249.9" cy="362.4" rx="224.2" ry="124.1"/>
</g>
<g id="freepik--Shadows--inject-7">
	<path id="freepik--Shadow--inject-7" class="st1" d="M451.7,343.1l-125,72.2c-1.1,0.5-2.3,0.5-3.4,0l-180.2-104
		c-0.5-0.1-0.9-0.7-0.7-1.2c0.1-0.4,0.4-0.6,0.7-0.7l125-72.2c1.1-0.5,2.3-0.5,3.4,0l180.2,104c0.5,0.1,0.9,0.7,0.7,1.2
		C452.3,342.8,452,343.1,451.7,343.1z"/>
	<ellipse id="freepik--shadow--inject-7" class="st1" cx="161.2" cy="412.4" rx="75.1" ry="43.4"/>
	<ellipse class="st1" cx="252.6" cy="362.1" rx="59.1" ry="34.1"/>
	<ellipse class="st1" cx="384.1" cy="407.9" rx="37.1" ry="21.4"/>
</g>
<g id="freepik--Desk--inject-7">
	<g id="freepik--desk--inject-7">
		<g id="freepik--Table--inject-7">
			<path class="st2" d="M329.4,286.4v111c0,0.8-0.5,1.5-1.1,1.9l-2.4,1.4c-0.7,0.4-1.5,0.4-2.2,0l-2.4-1.4c-0.7-0.4-1.1-1.2-1.1-1.9
				v-111c0-0.7,0.5-1,1.1-0.6l2.4,1.4c0.7,0.4,1.5,0.4,2.2,0l2.4-1.4C328.9,285.4,329.4,285.6,329.4,286.4z"/>
			<path class="st3" d="M323.7,400.6l-2.4-1.4c-0.7-0.4-1.1-1.2-1.1-1.9v-111c0-0.7,0.5-1,1.1-0.6l2.4,1.4c0.7,0.4,1.1,1.1,1.1,1.9
				v111C324.8,400.7,324.3,401,323.7,400.6z"/>
			<path class="st4" d="M430.9,227.7v110.9c0,0.8-0.5,1.5-1.1,1.9l-2.4,1.4c-0.7,0.4-1.5,0.4-2.2,0l-2.4-1.4
				c-0.7-0.4-1.1-1.2-1.1-1.9v-111c0-0.7,0.5-1,1.1-0.6l2.4,1.4c0.7,0.4,1.5,0.4,2.2,0l2.4-1.4C430.4,226.7,430.9,227,430.9,227.7z"
				/>
			<path class="st5" d="M425.2,342l-2.4-1.4c-0.7-0.4-1.1-1.2-1.1-1.9v-111c0-0.7,0.5-1,1.1-0.6l2.4,1.4c0.7,0.4,1.1,1.2,1.1,1.9
				v110.9C426.3,342,425.8,342.3,425.2,342z"/>
			<path class="st6" d="M192.7,207.5v111c0,0.8-0.5,1.5-1.1,1.9l-2.4,1.4c-0.7,0.4-1.5,0.4-2.2,0l-2.4-1.4c-0.7-0.4-1.1-1.2-1.1-1.9
				v-111c0-0.7,0.5-1,1.1-0.6l2.4,1.4c0.7,0.4,1.5,0.4,2.2,0l2.4-1.4C192.2,206.5,192.7,206.8,192.7,207.5z"/>
			<path class="st7" d="M187,321.7l-2.4-1.4c-0.7-0.4-1.1-1.2-1.1-1.9v-111c0-0.7,0.5-1,1.1-0.6l2.4,1.4c0.7,0.4,1.1,1.2,1.1,1.9
				v110.9C188.1,321.8,187.6,322.1,187,321.7z"/>
			<path class="st8" d="M453,235.6v-0.8c-0.1-1.4-0.8-2.7-2-3.5L272,128c-1.3-0.7-2.8-0.7-4.1,0l-110.1,63.6c-1.2,0.8-1.9,2.1-2,3.5
				v0.9c0.1,1.4,0.8,2.7,2,3.5l179,103.3c1.3,0.6,2.8,0.6,4.1,0L451,239.1C452.2,238.3,452.9,237,453,235.6z"/>
			<path class="st9" d="M453,235.6v-0.8c-0.1-1.4-0.8-2.7-2-3.5L272,128c-1.3-0.7-2.8-0.7-4.1,0l-110.1,63.6c-1.2,0.8-1.9,2.1-2,3.5
				v0.9c0.1,1.4,0.8,2.7,2,3.5l179,103.3c1.3,0.6,2.8,0.6,4.1,0L451,239.1C452.2,238.3,452.9,237,453,235.6z"/>
			<path class="st8" d="M338.8,297.7v5.5c0.7,0,1.4-0.2,2-0.5L451,239.1c1.2-0.8,1.9-2.1,2-3.5v-0.8c-0.1-1.3-0.7-2.5-1.7-3.3
				c0.7,0.6,0.6,1.5-0.4,2.1l-110.1,63.6C340.2,297.6,339.5,297.7,338.8,297.7z"/>
			<path class="st9" d="M338.8,297.7v5.5c0.7,0,1.4-0.2,2-0.5L451,239.1c1.2-0.8,1.9-2.1,2-3.5v-0.8c-0.1-1.3-0.7-2.5-1.7-3.3
				c0.7,0.6,0.6,1.5-0.4,2.1l-110.1,63.6C340.2,297.6,339.5,297.7,338.8,297.7z"/>
			<path class="st8" d="M451,233.6l-110.1,63.6c-1.3,0.7-2.8,0.7-4.1,0L157.8,194c-0.6-0.2-1-0.9-0.8-1.6c0.1-0.4,0.4-0.7,0.8-0.8
				L267.9,128c1.3-0.7,2.8-0.7,4.1,0l179,103.3c0.6,0.2,1,0.9,0.8,1.6C451.7,233.2,451.4,233.5,451,233.6z"/>
			<path class="st10" d="M451,233.6l-110.1,63.6c-1.3,0.7-2.8,0.7-4.1,0L157.8,194c-0.6-0.2-1-0.9-0.8-1.6c0.1-0.4,0.4-0.7,0.8-0.8
				L267.9,128c1.3-0.7,2.8-0.7,4.1,0l179,103.3c0.6,0.2,1,0.9,0.8,1.6C451.7,233.2,451.4,233.5,451,233.6z"/>
		</g>
		<g id="freepik--Keyboard--inject-7">
			<path class="st11" d="M325.3,232.2l-26.1,15.1c-0.9,0.5-2,0.5-2.9,0l-77.1-44.4c-0.5-0.2-0.7-0.7-0.6-1.1
				c0.1-0.3,0.3-0.5,0.6-0.6l26.1-15.1c0.9-0.5,2-0.5,2.9,0l77.1,44.4c0.5,0.2,0.7,0.7,0.5,1.2C325.7,232,325.5,232.1,325.3,232.2z"
				/>
			<g id="freepik--keyboard--inject-7">
				<path class="st12" d="M220.8,198.5c0-0.4,0.3-0.7,0.6-0.8l24.5-14.1c0.9-0.5,2-0.5,2.9,0l74.8,43.3c0.3,0.1,0.6,0.5,0.6,0.9v2.6
					c0,0.4-0.3,0.7-0.6,0.8l-24.5,14.1c-0.9,0.5-2,0.5-2.9,0L221.4,202c-0.3-0.1-0.6-0.5-0.6-0.8V198.5z"/>
				<path class="st6" d="M299.1,242.6l24.5-14.1c0.5-0.2,0.7-0.7,0.6-1.1c-0.1-0.3-0.3-0.5-0.6-0.6l-74.8-43.3c-0.9-0.5-2-0.5-2.9,0
					l-24.5,14.1c-0.5,0.2-0.7,0.7-0.6,1.1c0.1,0.3,0.3,0.5,0.6,0.6l74.8,43.2C297.1,243,298.2,243,299.1,242.6z"/>
				<path class="st12" d="M297.7,242.9v2.6c0.5,0,0.9-0.1,1.4-0.3l24.5-14.1c0.3-0.1,0.6-0.5,0.6-0.9v-2.6c0,0.4-0.3,0.7-0.6,0.9
					l-24.5,14.1C298.7,242.8,298.2,242.9,297.7,242.9z"/>
				<path class="st8" d="M225.3,198.7L225.3,198.7l2.4-1.4l3.3,1.9l-2.4,1.4L225.3,198.7L225.3,198.7z M229.1,196.5L229.1,196.5
					l2.4-1.4l2.6,1.5l-2.4,1.4L229.1,196.5L229.1,196.5z M229.9,201.4L229.9,201.4l2.4-1.4l2.6,1.5l-2.4,1.4L229.9,201.4
					L229.9,201.4z M232.9,194.4L232.9,194.4l2.4-1.4l4.2,2.4l-2.4,1.4L232.9,194.4L232.9,194.4z M233,198.8L233,198.8l2.4-1.4
					l2.1,1.2l-2.4,1.4L233,198.8L233,198.8z M233.8,203.7L233.8,203.7l2.4-1.4l2.6,1.5l-2.4,1.4L233.8,203.7L233.8,203.7z
					 M236.4,200.8L236.4,200.8l2.4-1.4l2,1.2l-2.4,1.4L236.4,200.8L236.4,200.8z M236.7,192.2L236.7,192.2l2.4-1.4l3.3,1.9l-2.4,1.4
					L236.7,192.2L236.7,192.2z M237.7,205.9L237.7,205.9l2.4-1.4l18.7,10.8l-2.4,1.4L237.7,205.9L237.7,205.9z M238.4,197.5
					L238.4,197.5l2.4-1.4l2,1.2l-2.4,1.4L238.4,197.5L238.4,197.5z M239.7,202.7L239.7,202.7l2.4-1.4l2.1,1.2l-2.4,1.4L239.7,202.7
					L239.7,202.7z M240.5,190L240.5,190l2.4-1.4l2.1,1.2l-2.4,1.4L240.5,190L240.5,190z M241.3,194.9L241.3,194.9l2.4-1.4l2.1,1.2
					l-2.4,1.4L241.3,194.9L241.3,194.9z M241.8,199.5L241.8,199.5l2.4-1.4l2.1,1.2l-2.4,1.4L241.8,199.5L241.8,199.5z M243.1,204.7
					L243.1,204.7l2.4-1.4l2,1.2l-2.4,1.4L243.1,204.7L243.1,204.7z M243.9,191.9L243.9,191.9l2.4-1.4l2.1,1.2l-2.4,1.4L243.9,191.9
					L243.9,191.9z M244.7,196.8L244.7,196.8l2.4-1.4l2.1,1.2l-2.4,1.4L244.7,196.8L244.7,196.8z M245.1,201.4L245.1,201.4l2.4-1.4
					l2,1.2l-2.4,1.4L245.1,201.4L245.1,201.4z M245.1,187.3L245.1,187.3l2.4-1.4l2.6,1.5l-2.4,1.4L245.1,187.3L245.1,187.3z
					 M246.4,206.6L246.4,206.6l2.4-1.4l2.1,1.2l-2.4,1.4L246.4,206.6L246.4,206.6z M247.2,193.9L247.2,193.9l2.4-1.4l2.1,1.2
					l-2.4,1.3L247.2,193.9L247.2,193.9z M248,198.7L248,198.7l2.4-1.4l2.1,1.2l-2.4,1.4L248,198.7L248,198.7z M248.5,203.4
					L248.5,203.4l2.4-1.4l2.1,1.2l-2.4,1.4L248.5,203.4L248.5,203.4z M249.8,208.5L249.8,208.5l2.4-1.4l2,1.2l-2.4,1.4L249.8,208.5
					L249.8,208.5z M250.5,190.4L250.5,190.4l2.4-1.4l2.1,1.2l-2.4,1.4L250.5,190.4L250.5,190.4z M250.6,195.8L250.6,195.8l2.4-1.4
					l2.1,1.2l-2.4,1.4L250.6,195.8L250.6,195.8z M251.4,200.7L251.4,200.7l2.4-1.4l2.1,1.2l-2.4,1.4L251.4,200.7L251.4,200.7z
					 M251.8,205.3L251.8,205.3l2.4-1.4l2,1.2l-2.4,1.4L251.8,205.3L251.8,205.3z M253.2,210.5L253.2,210.5l2.4-1.5l2,1.2l-2.4,1.4
					L253.2,210.5L253.2,210.5z M253.8,192.4L253.8,192.4l2.4-1.4l2.1,1.2l-2.4,1.4L253.8,192.4L253.8,192.4z M253.9,197.8
					L253.9,197.8l2.4-1.4l2.1,1.2l-2.4,1.4L253.9,197.8L253.9,197.8z M254.7,202.6L254.7,202.6l2.4-1.4l2.1,1.2l-2.4,1.4
					L254.7,202.6L254.7,202.6z M255.2,207.3L255.2,207.3l2.4-1.4l2,1.2l-2.4,1.4L255.2,207.3L255.2,207.3z M256.5,212.4L256.5,212.4
					l2.4-1.4l2,1.2l-2.4,1.4L256.5,212.4L256.5,212.4z M257.2,194.3L257.2,194.3l2.4-1.4l2,1.2l-2.4,1.4L257.2,194.3L257.2,194.3z
					 M257.3,199.7L257.3,199.7l2.4-1.4l2,1.2l-2.5,1.4L257.3,199.7L257.3,199.7z M257.7,217.5L257.7,217.5l2.4-1.4l2.6,1.5l-2.4,1.4
					L257.7,217.5L257.7,217.5z M258.1,204.6L258.1,204.6l2.4-1.4l2.1,1.2l-2.4,1.4L258.1,204.6L258.1,204.6z M258.5,209.2
					L258.5,209.2l2.4-1.4l2,1.1l-2.4,1.4L258.5,209.2L258.5,209.2z M259.9,214.4L259.9,214.4l2.4-1.4l2.1,1.2l-2.5,1.4L259.9,214.4
					L259.9,214.4z M260.5,196.3L260.5,196.3l2.4-1.4l2,1.1l-2.4,1.4L260.5,196.3L260.5,196.3z M260.7,201.6L260.7,201.6l2.4-1.4
					l2,1.2l-2.4,1.4L260.7,201.6L260.7,201.6z M261.5,206.5L261.5,206.5l2.4-1.4l2,1.2l-2.4,1.4L261.5,206.5L261.5,206.5z
					 M261.6,219.7L261.6,219.7l2.4-1.4l2.6,1.5l-2.4,1.4L261.6,219.7L261.6,219.7z M261.9,211.1L261.9,211.1l2.4-1.4l2,1.2l-2.3,1.4
					L261.9,211.1L261.9,211.1z M263.2,216.3L263.2,216.3l2.4-1.4l2.1,1.2l-2.5,1.4L263.2,216.3L263.2,216.3z M264,203.6L264,203.6
					l2.4-1.4l2,1.2l-2.4,1.4L264,203.6L264,203.6z M264.8,208.4L264.8,208.4l2.4-1.4l2,1.2l-2.4,1.4L264.8,208.4L264.8,208.4z
					 M265.3,213.1L265.3,213.1l2.4-1.4l2,1.2l-2.4,1.4L265.3,213.1L265.3,213.1z M265.4,199.1L265.4,199.1l2.4-1.4l2,1.2l-2.4,1.4
					L265.4,199.1L265.4,199.1z M265.4,222L265.4,222l2.4-1.4l2.6,1.5l-2.5,1.3L265.4,222L265.4,222z M266.6,218.3L266.6,218.3
					l2.4-1.4l2.1,1.2l-2.5,1.4L266.6,218.3L266.6,218.3z M267.4,205.6L267.4,205.6l2.4-1.4l2.1,1.2l-2.4,1.4L267.4,205.6
					L267.4,205.6z M268.2,210.4L268.2,210.4l2.4-1.4l2,1.2l-2.4,1.4L268.2,210.4L268.2,210.4z M268.6,215L268.6,215l2.4-1.4l2.1,1.2
					l-2.5,1.4L268.6,215L268.6,215z M268.7,201L268.7,201l2.4-1.4l2,1.2l-2.4,1.4L268.7,201L268.7,201z M269.3,224.3L269.3,224.3
					l2.4-1.4l3.3,1.9l-2.4,1.4L269.3,224.3L269.3,224.3z M270,220.3L270,220.3l2.4-1.4l6.5,3.7l-2.4,1.4l-6.4-3.9L270,220.3z
					 M270.7,207.6L270.7,207.6l2.4-1.4l2,1.2l-2.4,1.4L270.7,207.6L270.7,207.6z M271.5,212.4L271.5,212.4l2.4-1.4l2,1l-2.4,1.4
					l-2-1.2L271.5,212.4z M272,217L272,217l2.4-1.4l2.1,1.2l-2.5,1.3l-2-1.2L272,217z M272.1,203L272.1,203l2.4-1.4l2,1.2l-2.4,1.4
					L272.1,203L272.1,203z M274.1,209.5L274.1,209.5l2.4-1.4l2,1.2l-2.4,1.4L274.1,209.5L274.1,209.5z M274.6,227.4L274.6,227.4
					l2.4-1.4l2.1,1.2l-2.5,1.4L274.6,227.4L274.6,227.4z M274.9,214.4L274.9,214.4l2.4-1.4l2,1.2l-2.3,1.2l-2-1.2L274.9,214.4z
					 M275.3,219L275.3,219l2.4-1.4l1.9,1.1c0.2,0.1,0.4,0.1,0.6,0.1c0.2,0,0.4,0,0.6-0.1l3.2-1.8l2.4,1.4l-6.2,3.6L275.3,219
					L275.3,219z M275.4,205L275.4,205l2.4-1.4l2,1.2l-2.4,1.2l-2-1.2L275.4,205z M277.4,211.5L277.4,211.5l2.4-1.4l2.1,1.2l-2.4,1.4
					L277.4,211.5L277.4,211.5z M278,229.4L278,229.4l2.4-1.4l2.1,1.2l-2.5,1.4L278,229.4L278,229.4z M278.2,216.4L278.2,216.4
					l2.4-1.4l2,1.2l-2.4,1.4L278.2,216.4L278.2,216.4z M280.2,207.8L280.2,207.8l2.4-1.4l2.1,1.2l-2.5,1.4L280.2,207.8L280.2,207.8z
					 M280.8,213.4L280.8,213.4l2.4-1.4l2.1,1.2l-2.4,1.4L280.8,213.4L280.8,213.4z M281.3,231.3L281.3,231.3l2.4-1.4l2,1.2l-2.5,1.4
					L281.3,231.3L281.3,231.3z M281.8,227.2L281.8,227.2l2.4-1.4l2.1,1.2l-2.5,1.4l-2-1.4L281.8,227.2z M283.6,209.8L283.6,209.8
					l2.4-1.4l2,1.2l-2.4,1.4L283.6,209.8L283.6,209.8z M284.1,215.4L284.1,215.4l2.4-1.4l3.6,2.1l-2.4,1.4L284.1,215.4L284.1,215.4z
					 M285.4,233.7L285.4,233.7l2.4-1.4l5.4,3.1l-2.5,1.4L285.4,233.7L285.4,233.7z M286,220.9L286,220.9l2.4-1.4l2,1.2l-2.4,1.4
					L286,220.9L286,220.9z M287,211.7L287,211.7l2.4-1.4l2,1.2l-2.4,1.2l-2-1.2L287,211.7z M289.2,231.5L289.2,231.5l2.4-1.4l2,1.2
					l-2.4,1.4L289.2,231.5L289.2,231.5z M289.4,222.8L289.4,222.8l2.4-1.4l2,1.2l-2.4,1.4L289.4,222.8L289.4,222.8z M289.8,218.7
					L289.8,218.7l2.4-1.4l2,1.2l-2.4,1.4L289.8,218.7L289.8,218.7z M290.3,213.7L290.3,213.7l2.4-1.4l2,1.2l-2.4,1.4L290.3,213.7
					L290.3,213.7z M292.1,237.6L292.1,237.6l2.4-1.4l2.1,1.2l-2.5,1.4L292.1,237.6L292.1,237.6z M292.6,233.4L292.6,233.4l2.4-1.4
					l2,1.2l-2.4,1.4L292.6,233.4L292.6,233.4z M292.7,224.8L292.7,224.8l2.4-1.4l2,1.2l-2.4,1.4L292.7,224.8L292.7,224.8z
					 M293,229.3L293,229.3l2.4-1.4l2,1.2l-2.4,1.4L293,229.3L293,229.3z M293.2,220.6L293.2,220.6l2.4-1.4l2,1.2l-2.4,1.4
					L293.2,220.6L293.2,220.6z M294.4,216L294.4,216l2.4-1.4l2.1,1.2l-2.4,1.2l-2-1.2L294.4,216z M295.5,239.5L295.5,239.5l6.2-3.6
					l2,1.2l-6.2,3.6L295.5,239.5L295.5,239.5z M295.9,235.4L295.9,235.4l2.4-1.4l2,1.2l-2.4,1.2l-2-1.2L295.9,235.4z M296.4,231.2
					L296.4,231.2l2.4-1.4l2,1.2l-2.4,1.4l-2-1.5L296.4,231.2z M296.5,222.6L296.5,222.6l2.4-1.4l2,1.2l-2.4,1.4L296.5,222.6
					L296.5,222.6z M296.8,227.1L296.8,227.1l2.4-1.4l2,1.2l-2.4,1.4L296.8,227.1L296.8,227.1z M297.8,218L297.8,218l2.4-1.4l2.1,1.2
					l-2.4,1.4L297.8,218L297.8,218z M299.7,233.2L299.7,233.2l2.4-1.4l2,1.2l-2.4,1.4l-2-1.4L299.7,233.2z M300.2,229L300.2,229
					l2.4-1.4l2,1.2l-2.4,1.2l-2-1.2L300.2,229z M300.6,224.9L300.6,224.9l2.4-1.4l2.1,1.2l-2.5,1.4L300.6,224.9L300.6,224.9z
					 M301.2,219.9L301.2,219.9l2.4-1.4l2.1,1.2l-2.4,1.4L301.2,219.9L301.2,219.9z M303.1,235.1L303.1,235.1l6.2-3.6l2,1.2l-6.2,3.6
					L303.1,235.1L303.1,235.1z M303.5,231L303.5,231l2.4-1.4l2,1.2l-2.4,1.4L303.5,231L303.5,231z M304,226.9L304,226.9l2.4-1.4
					l2.1,1.2l-2.5,1.2l-2-1.2L304,226.9z M306.2,221.7L306.2,221.7l1-0.6l2.1,1.2l-1.1,0.6L306.2,221.7L306.2,221.7z M307.3,228.8
					L307.3,228.8l2.4-1.4l2.1,1.2l-2.5,1.4L307.3,228.8L307.3,228.8z M309.6,223.6L309.6,223.6l1-0.6l2.1,1.2l-1.1,0.6L309.6,223.6
					L309.6,223.6z M310.7,230.7L310.7,230.7l2.4-1.4l2.1,1.2l-2.5,1.4L310.7,230.7L310.7,230.7z M312.9,225.6L312.9,225.6l1-0.6
					l2.1,1.2l-1.1,0.6L312.9,225.6L312.9,225.6z M316.3,227.5L316.3,227.5l1-0.6l2.1,1.2l-1.1,0.6L316.3,227.5L316.3,227.5z"/>
			</g>
		</g>
		<g id="freepik--Device--inject-7">
			<polygon class="st11" points="385.6,235.2 408.5,221.9 293.8,155.7 270.8,168.9 			"/>
			<g id="freepik--Monitor--inject-7">
				<path class="st1" d="M320.6,213.6l-16.4-9.5c-1.7-1-2.5-2.3-2.5-3.5v-2.3l15.4-8.8c1-0.6,1.6-1.7,1.6-2.8v-20.2l28.6,16.5v20.2
					c-0.1,1.1-0.7,2.2-1.6,2.8l-12.9,7.5C329,215.5,324.4,215.5,320.6,213.6z"/>
				<path class="st13" d="M340.5,206.9v2.3l5.2-3c1-0.6,1.6-1.7,1.6-2.8v-20.2l-5.5-3.1c-0.1,1.4-0.2,2.8-0.4,4.2l3.8,2.2v15.8
					c-0.1,1.2-0.7,2.2-1.6,2.8L340.5,206.9z"/>
				<path class="st0" d="M345.4,202.1c-0.1,1.1-0.7,2.2-1.6,2.8l-10.9,6.4c-3.8,1.9-8.4,1.9-12.2,0l-16.4-9.5
					c-3.4-1.9-3.4-5.1,0-7.1l10.9-6.4c1-0.6,1.6-1.7,1.6-2.8v-15.8l28.6,16.5L345.4,202.1z"/>
				<path class="st14" d="M311.8,190.3L311.8,190.3l3.3-1.9c1-0.6,1.6-1.7,1.6-2.8v-15.8l28.6,16.5v15.8c-0.1,1.1-0.7,2.2-1.6,2.8
					l-3.3,1.9L311.8,190.3z"/>
				<path class="st14" d="M301.7,198.3v2.3c0,1.3,0.9,2.6,2.5,3.5l16.4,9.5c1.8,1,3.8,1.5,5.8,1.4v-2.3c-2,0-4-0.5-5.8-1.4
					l-16.4-9.5C302.5,200.9,301.7,199.6,301.7,198.3z"/>
				<path class="st7" d="M391.3,223.9c-1.3,0.6-2.7,0.6-4-0.1L276.7,160c-1.2-0.8-1.9-2.1-2-3.5V59.5c-0.1-2.1,1.6-3.9,3.7-4
					c0.8,0,1.5,0.2,2.2,0.6l110.7,63.9c1.2,0.8,1.9,2.1,2,3.5v96.9C393.2,221.9,392.5,223.1,391.3,223.9z"/>
				<path class="st6" d="M387.4,223.9L276.7,160c-1.2-0.8-1.9-2.1-2-3.5V59.5c0-1.3,0.9-1.8,2-1.2l110.7,63.9c1.2,0.8,1.9,2.1,2,3.5
					v96.9C389.4,224,388.5,224.5,387.4,223.9z"/>
				<path class="st13" d="M387.7,224.3c1.9,1,4.2,0.2,5.1-1.6c0.3-0.6,0.5-1.2,0.4-1.9v-10.9l-3.8,2.2v10.9
					C389.4,224.1,388.7,224.6,387.7,224.3z"/>
				<path class="st15" d="M389.4,212v10.9c0,1.3-0.9,1.8-2,1.2l-110.7-63.9c-1.2-0.8-1.9-2.1-2-3.5v-10.9L389.4,212z"/>
				<path class="st8" d="M385.6,203.7v-76.7c0-0.9-0.5-1.6-1.2-2.1L279.7,64.5c-0.7-0.4-1.2-0.1-1.2,0.7v76.7c0,0.9,0.5,1.6,1.2,2.1
					l104.7,60.4C385,204.8,385.6,204.5,385.6,203.7z"/>
				<path class="st16" d="M385.6,203.7v-76.7c0-0.9-0.5-1.6-1.2-2.1L279.7,64.5c-0.7-0.4-1.2-0.1-1.2,0.7v76.7
					c0,0.9,0.5,1.6,1.2,2.1l104.7,60.4C385,204.8,385.6,204.5,385.6,203.7z"/>
				<path class="st7" d="M332,183.1c1.1,0.7,1.8,2,1.9,3.3c0,1.2-0.9,1.7-1.9,1.1c-1.1-0.7-1.8-2-1.9-3.3
					C330.1,183,331,182.5,332,183.1z"/>
				<path class="st12" d="M388.8,123.8c0.4,0.6,0.6,1.3,0.6,2V212l3.8-2.2v-86.2c0-0.7-0.2-1.4-0.6-2L388.8,123.8z"/>
			</g>
		</g>
		<g id="freepik--Window--inject-7">
			<g id="freepik--window--inject-7">
				<path class="st7" d="M278.3,66.8c0,0,0-0.1,0-0.1l0,0c0,0,0-0.1,0-0.1c0-0.1,0-0.1,0.1-0.2c0,0,0-0.1,0-0.1l0-0.1
					c0,0,0.1-0.1,0.1-0.1l0,0c0,0,0.1-0.1,0.1-0.1c0.3-0.1,0.7-0.1,1,0.1l100.9,58.4c0.9,0.6,1.5,1.6,1.5,2.7v73.3l0,0v0.3
					c0,0.4-0.2,0.7-0.5,0.9l-0.1,0l-0.1,0h-0.1c-0.1,0-0.1,0-0.2,0c-0.2,0-0.3-0.1-0.5-0.1h0l0,0l-1.3-0.8l-99.5-57.6
					c-0.9-0.6-1.5-1.6-1.5-2.7V67C278.3,67,278.3,66.9,278.3,66.8z"/>
				<path class="st8" d="M278.8,66c0.3-0.1,0.7-0.1,1,0.1l100.9,58.4c0.9,0.6,1.5,1.6,1.5,2.7v5l1.9-1.1v-5
					c-0.1-1.1-0.6-2.1-1.5-2.7L281.8,65c-0.3-0.2-0.7-0.3-1.1-0.1C280.4,65.1,279.1,65.8,278.8,66z"/>
				<path class="st8" d="M278.3,67c0-1,0.7-1.4,1.5-0.9l100.9,58.5c0.9,0.6,1.5,1.6,1.5,2.7v5L278.3,72V67z"/>
				<g class="st17">
					<path class="st15" d="M279.8,66.1l100.9,58.5c0.4,0.3,0.8,0.7,1.1,1.1l1.9-1.1c-0.3-0.5-0.6-0.8-1.1-1.1L281.8,65
						c-0.3-0.2-0.8-0.3-1.1-0.1c-0.3,0.2-1.6,0.9-1.9,1.1C279.1,65.9,279.5,65.9,279.8,66.1z"/>
				</g>
				<path class="st11" d="M384.2,131.1v-5c0-0.6-0.2-1.1-0.5-1.6l-1.9,1.1c0.3,0.5,0.4,1,0.5,1.5v5.1L384.2,131.1z"/>
				<path class="st7" d="M378.8,125.6c0.6,0.4,0.9,1.1,0.9,1.8c0,0.7-0.4,1.1-0.9,0.8c-0.6-0.4-0.9-1.1-0.9-1.8
					C378,125.7,378.3,125.4,378.8,125.6z"/>
				<path class="st7" d="M375.7,123.8c0.6,0.4,0.9,1.1,0.9,1.8c0,0.7-0.4,1.1-0.9,0.8c-0.6-0.4-0.9-1.1-0.9-1.8
					C374.9,123.9,375.2,123.6,375.7,123.8z"/>
				<path class="st7" d="M372.6,122.1c0.6,0.4,0.9,1.1,0.9,1.8c0,0.7-0.4,1.1-0.9,0.8c-0.6-0.4-0.9-1.1-0.9-1.8
					C371.8,122.1,372.1,121.8,372.6,122.1z"/>
				<path class="st18" d="M381.7,201.8L381.7,201.8l1.7-1c0.4-0.3,0.7-0.7,0.8-1.2c0-0.1,0-0.1,0-0.2v-68.3l-2,1.2v68.6
					C382.2,201.2,382.1,201.6,381.7,201.8L381.7,201.8L381.7,201.8L381.7,201.8z"/>
			</g>
			<g id="freepik--Code--inject-7">
				<path class="st8" d="M309.2,98.1l21.3,12.3c0.3,0.2,0.5,0.5,0.5,0.9c0,0.3-0.2,0.5-0.5,0.3l-21.3-12.3c-0.3-0.2-0.5-0.5-0.5-0.9
					C308.7,98.1,308.9,97.9,309.2,98.1z"/>
				<path class="st1" d="M317.3,121.7l8,4.7c0.3,0.2,0.5,0.5,0.5,0.9c0,0.3-0.2,0.4-0.5,0.3l-8-4.6c-0.3-0.2-0.5-0.5-0.5-0.9
					C316.8,121.6,317,121.5,317.3,121.7z"/>
				<path class="st1" d="M317.3,126.4l8,4.6c0.3,0.2,0.5,0.5,0.5,0.9c0,0.3-0.2,0.4-0.5,0.3l-8-4.6c-0.3-0.2-0.5-0.5-0.5-0.9
					C316.8,126.3,317,126.2,317.3,126.4z"/>
				<path class="st8" d="M332.6,111.6l42.6,24.6c0.3,0.2,0.5,0.5,0.5,0.9c0,0.3-0.2,0.4-0.5,0.3l-42.6-24.6
					c-0.3-0.2-0.5-0.5-0.5-0.9C332,111.6,332.3,111.5,332.6,111.6z"/>
				<path class="st8" d="M317.5,154.7l13,7.5c0.3,0.2,0.5,0.5,0.5,0.9c0,0.3-0.2,0.4-0.5,0.3l-13-7.5c-0.3-0.2-0.5-0.5-0.5-0.9
					C317,154.7,317.2,154.5,317.5,154.7z"/>
				<path class="st8" d="M332.6,163.5l42.6,24.7c0.3,0.2,0.5,0.5,0.5,0.9c0,0.3-0.2,0.4-0.5,0.3l-42.6-24.7
					c-0.3-0.2-0.5-0.5-0.5-0.9C332,163.4,332.3,163.3,332.6,163.5z"/>
				<path class="st8" d="M309.2,102.8l10.7,6.2c0.3,0.2,0.5,0.5,0.5,0.9c0,0.3-0.2,0.5-0.5,0.3l-10.7-6.1c-0.3-0.2-0.5-0.5-0.5-0.9
					C308.7,102.8,308.9,102.7,309.2,102.8z"/>
				<path class="st19" d="M309.2,102.8l10.7,6.2c0.3,0.2,0.5,0.5,0.5,0.9c0,0.3-0.2,0.5-0.5,0.3l-10.7-6.1c-0.3-0.2-0.5-0.5-0.5-0.9
					C308.7,102.8,308.9,102.7,309.2,102.8z"/>
				<path class="st8" d="M309.2,107.5l5,2.9c0.3,0.2,0.5,0.5,0.5,0.9c0,0.3-0.2,0.4-0.5,0.3l-5-2.9c-0.3-0.2-0.5-0.5-0.5-0.9
					C308.7,107.5,308.9,107.4,309.2,107.5z"/>
				<path class="st19" d="M309.2,107.5l5,2.9c0.3,0.2,0.5,0.5,0.5,0.9c0,0.3-0.2,0.4-0.5,0.3l-5-2.9c-0.3-0.2-0.5-0.5-0.5-0.9
					C308.7,107.5,308.9,107.4,309.2,107.5z"/>
				<path class="st8" d="M309.2,117l5,2.9c0.3,0.2,0.5,0.5,0.5,0.9c0,0.3-0.2,0.4-0.5,0.3l-5-2.9c-0.3-0.2-0.5-0.5-0.5-0.9
					C308.7,116.9,308.9,116.8,309.2,117z"/>
				<path class="st19" d="M309.2,117l5,2.9c0.3,0.2,0.5,0.5,0.5,0.9c0,0.3-0.2,0.4-0.5,0.3l-5-2.9c-0.3-0.2-0.5-0.5-0.5-0.9
					C308.7,116.9,308.9,116.8,309.2,117z"/>
				<path class="st8" d="M309.2,121.7l5,2.9c0.3,0.2,0.5,0.5,0.5,0.9c0,0.3-0.2,0.5-0.5,0.3l-5-2.9c-0.3-0.2-0.5-0.5-0.5-0.9
					C308.7,121.6,308.9,121.5,309.2,121.7z"/>
				<path class="st19" d="M309.2,121.7l5,2.9c0.3,0.2,0.5,0.5,0.5,0.9c0,0.3-0.2,0.5-0.5,0.3l-5-2.9c-0.3-0.2-0.5-0.5-0.5-0.9
					C308.7,121.6,308.9,121.5,309.2,121.7z"/>
				<path class="st8" d="M322,110.2l6.4,3.7c0.3,0.2,0.5,0.5,0.5,0.9c0,0.3-0.2,0.4-0.5,0.3l-6.4-3.7c-0.3-0.2-0.5-0.5-0.5-0.9
					C321.5,110.2,321.7,110.1,322,110.2z"/>
				<path class="st19" d="M322,110.2l6.4,3.7c0.3,0.2,0.5,0.5,0.5,0.9c0,0.3-0.2,0.4-0.5,0.3l-6.4-3.7c-0.3-0.2-0.5-0.5-0.5-0.9
					C321.5,110.2,321.7,110.1,322,110.2z"/>
				<path class="st15" d="M332,144.3l43.2,25c0.3,0.2,0.5,0.5,0.5,0.9c0,0.3-0.2,0.4-0.5,0.3l-43.2-25c-0.3-0.2-0.5-0.5-0.5-0.9
					C331.4,144.2,331.7,144.1,332,144.3z"/>
				<path class="st15" d="M368.8,160.8l6.4,3.7c0.3,0.2,0.5,0.5,0.5,0.9c0,0.3-0.2,0.4-0.5,0.3l-6.4-3.7c-0.3-0.2-0.5-0.5-0.5-0.9
					C368.2,160.8,368.5,160.6,368.8,160.8z"/>
				<path class="st15" d="M323.4,134.6l43.2,25c0.3,0.2,0.5,0.5,0.5,0.9c0,0.3-0.2,0.4-0.5,0.3l-43.2-25c-0.3-0.2-0.5-0.5-0.5-0.9
					C322.9,134.6,323.1,134.4,323.4,134.6z"/>
				<path class="st8" d="M317.3,112.3l10.7,6.2c0.3,0.2,0.5,0.5,0.5,0.9c0,0.3-0.2,0.4-0.5,0.3l-10.7-6.2c-0.3-0.2-0.5-0.5-0.5-0.9
					C316.8,112.2,317,112.1,317.3,112.3z"/>
				<path class="st19" d="M317.3,112.3l10.7,6.2c0.3,0.2,0.5,0.5,0.5,0.9c0,0.3-0.2,0.4-0.5,0.3l-10.7-6.2c-0.3-0.2-0.5-0.5-0.5-0.9
					C316.8,112.2,317,112.1,317.3,112.3z"/>
				<path class="st8" d="M330.2,119.7l44.7,26c0.3,0.2,0.5,0.5,0.5,0.9c0,0.3-0.2,0.4-0.5,0.3l-44.7-26c-0.3-0.2-0.5-0.5-0.5-0.9
					C329.6,119.6,329.9,119.5,330.2,119.7z"/>
				<path class="st19" d="M330.2,119.7l44.7,26c0.3,0.2,0.5,0.5,0.5,0.9c0,0.3-0.2,0.4-0.5,0.3l-44.7-26c-0.3-0.2-0.5-0.5-0.5-0.9
					C329.6,119.6,329.9,119.5,330.2,119.7z"/>
				<path class="st1" d="M317.3,140.6l57.8,33.5c0.3,0.2,0.5,0.5,0.5,0.9c0,0.3-0.2,0.5-0.5,0.3l-57.8-33.5
					c-0.3-0.2-0.5-0.5-0.6-0.9C316.8,140.6,317,140.4,317.3,140.6z"/>
				<path class="st8" d="M309.2,135.9l5,2.9c0.3,0.2,0.5,0.5,0.5,0.9c0,0.3-0.2,0.4-0.5,0.3l-5-2.9c-0.3-0.2-0.5-0.5-0.5-0.9
					C308.7,135.9,308.9,135.7,309.2,135.9z"/>
				<path class="st19" d="M309.2,135.9l5,2.9c0.3,0.2,0.5,0.5,0.5,0.9c0,0.3-0.2,0.4-0.5,0.3l-5-2.9c-0.3-0.2-0.5-0.5-0.5-0.9
					C308.7,135.9,308.9,135.7,309.2,135.9z"/>
				<path class="st1" d="M317.3,145.3l57.8,33.5c0.3,0.2,0.5,0.5,0.5,0.9c0,0.3-0.2,0.4-0.5,0.3l-57.8-33.5
					c-0.3-0.2-0.5-0.5-0.6-0.9C316.8,145.3,317,145.2,317.3,145.3z"/>
				<path class="st8" d="M309.2,140.6l5,2.9c0.3,0.2,0.5,0.5,0.5,0.9c0,0.3-0.2,0.4-0.5,0.3l-5-2.9c-0.3-0.2-0.5-0.5-0.5-0.9
					C308.7,140.6,308.9,140.4,309.2,140.6z"/>
				<path class="st19" d="M309.2,140.6l5,2.9c0.3,0.2,0.5,0.5,0.5,0.9c0,0.3-0.2,0.4-0.5,0.3l-5-2.9c-0.3-0.2-0.5-0.5-0.5-0.9
					C308.7,140.6,308.9,140.4,309.2,140.6z"/>
				<path class="st1" d="M317.3,150l57.8,33.5c0.3,0.2,0.5,0.5,0.5,0.9c0,0.3-0.2,0.4-0.5,0.3l-57.8-33.5c-0.3-0.2-0.5-0.5-0.6-0.9
					C316.8,150,317,149.9,317.3,150z"/>
				<path class="st8" d="M309.2,145.3l5,2.9c0.3,0.2,0.5,0.5,0.5,0.9c0,0.3-0.2,0.5-0.5,0.3l-5-2.9c-0.3-0.2-0.5-0.5-0.5-0.9
					C308.7,145.3,308.9,145.2,309.2,145.3z"/>
				<path class="st19" d="M309.2,145.3l5,2.9c0.3,0.2,0.5,0.5,0.5,0.9c0,0.3-0.2,0.5-0.5,0.3l-5-2.9c-0.3-0.2-0.5-0.5-0.5-0.9
					C308.7,145.3,308.9,145.2,309.2,145.3z"/>
				<g class="st20">
					<path class="st15" d="M301.4,93.4l2.9,1.7c0.3,0.2,0.5,0.6,0.5,0.9v1.1c0,0.3-0.2,0.5-0.5,0.3l-2.9-1.7
						c-0.3-0.2-0.5-0.5-0.5-0.9v-1.1C300.9,93.4,301.1,93.2,301.4,93.4z"/>
					<path class="st15" d="M301.4,98.2l2.9,1.7c0.3,0.2,0.5,0.5,0.5,0.9v1.1c0,0.3-0.2,0.5-0.5,0.3l-2.9-1.7
						c-0.3-0.2-0.5-0.6-0.5-0.9v-1.1C300.9,98.1,301.1,98,301.4,98.2z"/>
					<path class="st15" d="M301.4,102.9l2.9,1.7c0.3,0.2,0.5,0.6,0.5,0.9v1.1c0,0.3-0.2,0.5-0.5,0.3l-2.9-1.7
						c-0.3-0.2-0.5-0.5-0.5-0.9v-1.1C300.9,102.9,301.1,102.7,301.4,102.9z"/>
					<path class="st15" d="M301.4,107.7l2.9,1.7c0.3,0.2,0.5,0.5,0.5,0.9v1.1c0,0.3-0.2,0.5-0.5,0.3l-2.9-1.7
						c-0.3-0.2-0.5-0.6-0.5-0.9V108C300.9,107.6,301.1,107.5,301.4,107.7z"/>
					<path class="st15" d="M301.4,112.4l2.9,1.7c0.3,0.2,0.5,0.6,0.5,0.9v1.1c0,0.3-0.2,0.5-0.5,0.3l-2.9-1.7
						c-0.3-0.2-0.5-0.5-0.5-0.9v-1.1C300.9,112.4,301.1,112.2,301.4,112.4z"/>
					<path class="st15" d="M301.4,117.2l2.9,1.7c0.3,0.2,0.5,0.5,0.5,0.9v1.1c0,0.3-0.2,0.5-0.5,0.3l-2.9-1.7
						c-0.3-0.2-0.5-0.6-0.5-0.9v-1.1C300.9,117.1,301.1,117,301.4,117.2z"/>
					<path class="st15" d="M301.4,121.9l2.9,1.7c0.3,0.2,0.5,0.6,0.5,0.9v1.1c0,0.3-0.2,0.5-0.5,0.3l-2.9-1.7
						c-0.3-0.2-0.5-0.5-0.5-0.9v-1.1C300.9,121.9,301.1,121.8,301.4,121.9z"/>
					<path class="st15" d="M301.4,126.7l2.9,1.7c0.3,0.2,0.5,0.5,0.5,0.9v1.1c0,0.3-0.2,0.5-0.5,0.3l-2.9-1.7
						c-0.3-0.2-0.5-0.6-0.5-0.9V127C300.9,126.7,301.1,126.5,301.4,126.7z"/>
					<path class="st15" d="M301.4,131.4l2.9,1.7c0.3,0.2,0.5,0.6,0.5,0.9v1.1c0,0.3-0.2,0.5-0.5,0.3l-2.9-1.7
						c-0.3-0.2-0.5-0.6-0.5-0.9v-1.1C300.9,131.4,301.1,131.3,301.4,131.4z"/>
					<path class="st15" d="M301.4,136.2l2.9,1.7c0.3,0.2,0.5,0.5,0.5,0.9v1.1c0,0.3-0.2,0.5-0.5,0.3l-2.9-1.7
						c-0.3-0.2-0.5-0.6-0.5-0.9v-1.1C300.9,136.2,301.1,136,301.4,136.2z"/>
					<path class="st15" d="M301.4,140.9l2.9,1.7c0.3,0.2,0.5,0.6,0.5,0.9v1.1c0,0.3-0.2,0.5-0.5,0.3l-2.9-1.7
						c-0.3-0.2-0.5-0.6-0.5-0.9v-1.1C300.9,140.9,301.1,140.8,301.4,140.9z"/>
					<path class="st15" d="M301.4,145.7l2.9,1.7c0.3,0.2,0.5,0.6,0.5,0.9v1.1c0,0.3-0.2,0.5-0.5,0.3l-2.9-1.7
						c-0.3-0.2-0.5-0.6-0.5-0.9V146C300.9,145.7,301.1,145.5,301.4,145.7z"/>
				</g>
				<path class="st6" d="M281.8,77.9l15.9,9.2c0.6,0.4,1,1.1,1.1,1.9v18.5c0,0.7-0.5,1-1.1,0.6l-15.9-9.2c-0.6-0.4-1-1.1-1.1-1.9
					V78.6C280.8,77.9,281.2,77.6,281.8,77.9z"/>
				<path class="st8" d="M283.3,96.3l1.5,0.9c0.3,0.2,0.5,0.5,0.5,0.9c0,0.3-0.3,0.4-0.5,0.3l-1.5-0.9c-0.3-0.2-0.5-0.5-0.5-0.9
					C282.8,96.2,283,96.1,283.3,96.3z"/>
				<path class="st19" d="M283.3,96.3l1.5,0.9c0.3,0.2,0.5,0.5,0.5,0.9c0,0.3-0.3,0.4-0.5,0.3l-1.5-0.9c-0.3-0.2-0.5-0.5-0.5-0.9
					C282.8,96.2,283,96.1,283.3,96.3z"/>
				<path class="st8" d="M283.3,81.1l1.5,0.9c0.3,0.2,0.5,0.5,0.5,0.9c0,0.3-0.3,0.4-0.5,0.3l-1.5-0.8c-0.3-0.2-0.5-0.5-0.5-0.9
					C282.8,81.1,283,81,283.3,81.1z"/>
				<path class="st19" d="M283.3,81.1l1.5,0.9c0.3,0.2,0.5,0.5,0.5,0.9c0,0.3-0.3,0.4-0.5,0.3l-1.5-0.8c-0.3-0.2-0.5-0.5-0.5-0.9
					C282.8,81.1,283,81,283.3,81.1z"/>
				<path class="st8" d="M285.4,85.3l1.5,0.8c0.3,0.2,0.5,0.5,0.5,0.9c0,0.3-0.2,0.5-0.5,0.3l-1.5-0.8c-0.3-0.2-0.5-0.5-0.5-0.9
					C284.8,85.3,285.1,85.2,285.4,85.3z"/>
				<path class="st19" d="M285.4,85.3l1.5,0.8c0.3,0.2,0.5,0.5,0.5,0.9c0,0.3-0.2,0.5-0.5,0.3l-1.5-0.8c-0.3-0.2-0.5-0.5-0.5-0.9
					C284.8,85.3,285.1,85.2,285.4,85.3z"/>
				<path class="st8" d="M285.4,88.4l1.5,0.9c0.3,0.2,0.5,0.5,0.5,0.9c0,0.3-0.2,0.4-0.5,0.3l-1.5-0.8c-0.3-0.2-0.5-0.5-0.5-0.9
					C284.8,88.3,285.1,88.2,285.4,88.4z"/>
				<path class="st19" d="M285.4,88.4l1.5,0.9c0.3,0.2,0.5,0.5,0.5,0.9c0,0.3-0.2,0.4-0.5,0.3l-1.5-0.8c-0.3-0.2-0.5-0.5-0.5-0.9
					C284.8,88.3,285.1,88.2,285.4,88.4z"/>
				<path class="st8" d="M283.3,90.2l1.5,0.9c0.3,0.2,0.5,0.5,0.5,0.9c0,0.3-0.3,0.4-0.5,0.3l-1.5-0.8c-0.3-0.2-0.5-0.5-0.5-0.9
					C282.8,90.2,283,90,283.3,90.2z"/>
				<path class="st19" d="M283.3,90.2l1.5,0.9c0.3,0.2,0.5,0.5,0.5,0.9c0,0.3-0.3,0.4-0.5,0.3l-1.5-0.8c-0.3-0.2-0.5-0.5-0.5-0.9
					C282.8,90.2,283,90,283.3,90.2z"/>
				<path class="st8" d="M285.4,94.4l1.5,0.9c0.3,0.2,0.5,0.5,0.5,0.9c0,0.3-0.2,0.4-0.5,0.3l-1.5-0.9c-0.3-0.2-0.5-0.5-0.5-0.9
					C284.8,94.4,285.1,94.2,285.4,94.4z"/>
				<path class="st19" d="M285.4,94.4l1.5,0.9c0.3,0.2,0.5,0.5,0.5,0.9c0,0.3-0.2,0.4-0.5,0.3l-1.5-0.9c-0.3-0.2-0.5-0.5-0.5-0.9
					C284.8,94.4,285.1,94.2,285.4,94.4z"/>
				<path class="st8" d="M287.3,83.5l9,5.2c0.3,0.2,0.5,0.5,0.5,0.9c0,0.3-0.2,0.4-0.5,0.3l-9-5.2c-0.3-0.2-0.5-0.5-0.5-0.9
					C286.8,83.4,287,83.3,287.3,83.5z"/>
				<path class="st21" d="M287.3,83.5l9,5.2c0.3,0.2,0.5,0.5,0.5,0.9c0,0.3-0.2,0.4-0.5,0.3l-9-5.2c-0.3-0.2-0.5-0.5-0.5-0.9
					C286.8,83.4,287,83.3,287.3,83.5z"/>
				<path class="st8" d="M287.3,98.6l9,5.2c0.3,0.2,0.5,0.5,0.5,0.9c0,0.3-0.2,0.4-0.5,0.3l-9-5.2c-0.3-0.2-0.5-0.5-0.5-0.9
					C286.8,98.6,287,98.4,287.3,98.6z"/>
				<path class="st21" d="M287.3,98.6l9,5.2c0.3,0.2,0.5,0.5,0.5,0.9c0,0.3-0.2,0.4-0.5,0.3l-9-5.2c-0.3-0.2-0.5-0.5-0.5-0.9
					C286.8,98.6,287,98.4,287.3,98.6z"/>
				<path class="st8" d="M289.4,87.7l6.9,4c0.3,0.2,0.5,0.5,0.5,0.9c0,0.3-0.2,0.4-0.5,0.3l-6.9-4c-0.3-0.2-0.5-0.5-0.5-0.9
					C288.9,87.6,289.1,87.5,289.4,87.7z"/>
				<path class="st21" d="M289.4,87.7l6.9,4c0.3,0.2,0.5,0.5,0.5,0.9c0,0.3-0.2,0.4-0.5,0.3l-6.9-4c-0.3-0.2-0.5-0.5-0.5-0.9
					C288.9,87.6,289.1,87.5,289.4,87.7z"/>
				<path class="st8" d="M289.4,90.7l6.9,4c0.3,0.2,0.5,0.5,0.5,0.9c0,0.3-0.2,0.4-0.5,0.3l-6.9-4c-0.3-0.2-0.5-0.5-0.5-0.9
					C288.9,90.6,289.1,90.5,289.4,90.7z"/>
				<path class="st21" d="M289.4,90.7l6.9,4c0.3,0.2,0.5,0.5,0.5,0.9c0,0.3-0.2,0.4-0.5,0.3l-6.9-4c-0.3-0.2-0.5-0.5-0.5-0.9
					C288.9,90.6,289.1,90.5,289.4,90.7z"/>
				<path class="st8" d="M287.3,92.5l9,5.2c0.3,0.2,0.5,0.5,0.5,0.9c0,0.3-0.2,0.4-0.5,0.3l-9-5.2c-0.3-0.2-0.5-0.5-0.5-0.9
					C286.8,92.5,287,92.4,287.3,92.5z"/>
				<path class="st21" d="M287.3,92.5l9,5.2c0.3,0.2,0.5,0.5,0.5,0.9c0,0.3-0.2,0.4-0.5,0.3l-9-5.2c-0.3-0.2-0.5-0.5-0.5-0.9
					C286.8,92.5,287,92.4,287.3,92.5z"/>
				<path class="st8" d="M289.4,96.7l6.9,4c0.3,0.2,0.5,0.5,0.5,0.9c0,0.3-0.2,0.4-0.5,0.3l-6.9-4c-0.3-0.2-0.5-0.5-0.5-0.9
					C288.9,96.7,289.1,96.6,289.4,96.7z"/>
				<path class="st21" d="M289.4,96.7l6.9,4c0.3,0.2,0.5,0.5,0.5,0.9c0,0.3-0.2,0.4-0.5,0.3l-6.9-4c-0.3-0.2-0.5-0.5-0.5-0.9
					C288.9,96.7,289.1,96.6,289.4,96.7z"/>
				<path class="st6" d="M281.8,102.4l15.9,9.2c0.6,0.4,1,1.1,1.1,1.9V150c0,0.7-0.5,1-1.1,0.6l-15.9-9.2c-0.6-0.4-1-1.1-1.1-1.9
					V103C280.8,102.3,281.2,102,281.8,102.4z"/>
				<path class="st8" d="M283.3,105.6l1.5,0.8c0.3,0.2,0.5,0.5,0.5,0.9c0,0.3-0.3,0.4-0.5,0.3l-1.5-0.8c-0.3-0.2-0.5-0.5-0.5-0.9
					C282.8,105.5,283,105.4,283.3,105.6z"/>
				<path class="st19" d="M283.3,105.6l1.5,0.8c0.3,0.2,0.5,0.5,0.5,0.9c0,0.3-0.3,0.4-0.5,0.3l-1.5-0.8c-0.3-0.2-0.5-0.5-0.5-0.9
					C282.8,105.5,283,105.4,283.3,105.6z"/>
				<path class="st8" d="M285.4,109.8l1.5,0.8c0.3,0.2,0.5,0.5,0.5,0.9c0,0.3-0.2,0.4-0.5,0.3l-1.5-0.9c-0.3-0.2-0.5-0.5-0.5-0.9
					C284.8,109.7,285.1,109.6,285.4,109.8z"/>
				<path class="st19" d="M285.4,109.8l1.5,0.8c0.3,0.2,0.5,0.5,0.5,0.9c0,0.3-0.2,0.4-0.5,0.3l-1.5-0.9c-0.3-0.2-0.5-0.5-0.5-0.9
					C284.8,109.7,285.1,109.6,285.4,109.8z"/>
				<path class="st8" d="M285.4,112.8l1.5,0.8c0.3,0.2,0.5,0.5,0.5,0.9c0,0.3-0.2,0.4-0.5,0.3l-1.5-0.8c-0.3-0.2-0.5-0.5-0.5-0.9
					C284.8,112.7,285.1,112.6,285.4,112.8z"/>
				<path class="st19" d="M285.4,112.8l1.5,0.8c0.3,0.2,0.5,0.5,0.5,0.9c0,0.3-0.2,0.4-0.5,0.3l-1.5-0.8c-0.3-0.2-0.5-0.5-0.5-0.9
					C284.8,112.7,285.1,112.6,285.4,112.8z"/>
				<path class="st8" d="M283.3,114.6l1.5,0.8c0.3,0.2,0.5,0.5,0.5,0.9c0,0.3-0.3,0.4-0.5,0.3l-1.5-0.8c-0.3-0.2-0.5-0.5-0.5-0.9
					C282.8,114.6,283,114.5,283.3,114.6z"/>
				<path class="st19" d="M283.3,114.6l1.5,0.8c0.3,0.2,0.5,0.5,0.5,0.9c0,0.3-0.3,0.4-0.5,0.3l-1.5-0.8c-0.3-0.2-0.5-0.5-0.5-0.9
					C282.8,114.6,283,114.5,283.3,114.6z"/>
				<path class="st8" d="M287.3,107.9l9,5.2c0.3,0.2,0.5,0.5,0.5,0.9c0,0.3-0.2,0.4-0.5,0.3l-9-5.2c-0.3-0.2-0.5-0.5-0.5-0.9
					C286.8,107.8,287,107.7,287.3,107.9z"/>
				<path class="st21" d="M287.3,107.9l9,5.2c0.3,0.2,0.5,0.5,0.5,0.9c0,0.3-0.2,0.4-0.5,0.3l-9-5.2c-0.3-0.2-0.5-0.5-0.5-0.9
					C286.8,107.8,287,107.7,287.3,107.9z"/>
				<path class="st8" d="M289.4,112.1l6.9,4c0.3,0.2,0.5,0.5,0.5,0.9c0,0.3-0.2,0.4-0.5,0.3l-6.9-4c-0.3-0.2-0.5-0.5-0.5-0.9
					C288.9,112,289.1,111.9,289.4,112.1z"/>
				<path class="st21" d="M289.4,112.1l6.9,4c0.3,0.2,0.5,0.5,0.5,0.9c0,0.3-0.2,0.4-0.5,0.3l-6.9-4c-0.3-0.2-0.5-0.5-0.5-0.9
					C288.9,112,289.1,111.9,289.4,112.1z"/>
				<path class="st8" d="M289.4,115.1l6.9,4c0.3,0.2,0.5,0.5,0.5,0.9c0,0.3-0.2,0.5-0.5,0.3l-6.9-4c-0.3-0.2-0.5-0.5-0.5-0.9
					C288.9,115.1,289.1,114.9,289.4,115.1z"/>
				<path class="st21" d="M289.4,115.1l6.9,4c0.3,0.2,0.5,0.5,0.5,0.9c0,0.3-0.2,0.5-0.5,0.3l-6.9-4c-0.3-0.2-0.5-0.5-0.5-0.9
					C288.9,115.1,289.1,114.9,289.4,115.1z"/>
				<path class="st8" d="M287.3,117l9,5.2c0.3,0.2,0.5,0.5,0.5,0.9c0,0.3-0.2,0.4-0.5,0.3l-9-5.2c-0.3-0.2-0.5-0.5-0.5-0.9
					C286.8,116.9,287,116.8,287.3,117z"/>
				<path class="st21" d="M287.3,117l9,5.2c0.3,0.2,0.5,0.5,0.5,0.9c0,0.3-0.2,0.4-0.5,0.3l-9-5.2c-0.3-0.2-0.5-0.5-0.5-0.9
					C286.8,116.9,287,116.8,287.3,117z"/>
				<path class="st8" d="M285.4,118.9l1.5,0.9c0.3,0.2,0.5,0.5,0.5,0.9c0,0.3-0.2,0.4-0.5,0.3l-1.5-0.8c-0.3-0.2-0.5-0.5-0.5-0.9
					C284.8,118.8,285.1,118.7,285.4,118.9z"/>
				<path class="st19" d="M285.4,118.9l1.5,0.9c0.3,0.2,0.5,0.5,0.5,0.9c0,0.3-0.2,0.4-0.5,0.3l-1.5-0.8c-0.3-0.2-0.5-0.5-0.5-0.9
					C284.8,118.8,285.1,118.7,285.4,118.9z"/>
				<path class="st8" d="M285.4,121.9l1.5,0.9c0.3,0.2,0.5,0.5,0.5,0.9c0,0.3-0.2,0.4-0.5,0.3l-1.5-0.9c-0.3-0.2-0.5-0.5-0.5-0.9
					C284.8,121.8,285.1,121.7,285.4,121.9z"/>
				<path class="st19" d="M285.4,121.9l1.5,0.9c0.3,0.2,0.5,0.5,0.5,0.9c0,0.3-0.2,0.4-0.5,0.3l-1.5-0.9c-0.3-0.2-0.5-0.5-0.5-0.9
					C284.8,121.8,285.1,121.7,285.4,121.9z"/>
				<path class="st8" d="M289.4,121.2l6.9,4c0.3,0.2,0.5,0.5,0.5,0.9c0,0.3-0.2,0.5-0.5,0.3l-6.9-4c-0.3-0.2-0.5-0.5-0.5-0.9
					C288.9,121.1,289.1,121,289.4,121.2z"/>
				<path class="st21" d="M289.4,121.2l6.9,4c0.3,0.2,0.5,0.5,0.5,0.9c0,0.3-0.2,0.5-0.5,0.3l-6.9-4c-0.3-0.2-0.5-0.5-0.5-0.9
					C288.9,121.1,289.1,121,289.4,121.2z"/>
				<path class="st8" d="M289.4,124.2l6.9,4c0.3,0.2,0.5,0.5,0.5,0.9c0,0.3-0.2,0.4-0.5,0.3l-6.9-4c-0.3-0.2-0.5-0.5-0.5-0.9
					C288.9,124.2,289.1,124,289.4,124.2z"/>
				<path class="st21" d="M289.4,124.2l6.9,4c0.3,0.2,0.5,0.5,0.5,0.9c0,0.3-0.2,0.4-0.5,0.3l-6.9-4c-0.3-0.2-0.5-0.5-0.5-0.9
					C288.9,124.2,289.1,124,289.4,124.2z"/>
				<path class="st8" d="M283.3,129.8l1.5,0.9c0.3,0.2,0.5,0.5,0.5,0.9c0,0.3-0.3,0.4-0.5,0.3l-1.5-0.9c-0.3-0.2-0.5-0.5-0.5-0.9
					C282.8,129.7,283,129.6,283.3,129.8z"/>
				<path class="st19" d="M283.3,129.8l1.5,0.9c0.3,0.2,0.5,0.5,0.5,0.9c0,0.3-0.3,0.4-0.5,0.3l-1.5-0.9c-0.3-0.2-0.5-0.5-0.5-0.9
					C282.8,129.7,283,129.6,283.3,129.8z"/>
				<path class="st8" d="M287.3,132.1l9,5.2c0.3,0.2,0.5,0.5,0.5,0.9c0,0.3-0.2,0.4-0.5,0.3l-9-5.2c-0.3-0.2-0.5-0.5-0.5-0.9
					C286.8,132.1,287,131.9,287.3,132.1z"/>
				<path class="st21" d="M287.3,132.1l9,5.2c0.3,0.2,0.5,0.5,0.5,0.9c0,0.3-0.2,0.4-0.5,0.3l-9-5.2c-0.3-0.2-0.5-0.5-0.5-0.9
					C286.8,132.1,287,131.9,287.3,132.1z"/>
				<path class="st8" d="M285.4,134l1.5,0.9c0.3,0.2,0.5,0.5,0.5,0.9c0,0.3-0.2,0.4-0.5,0.3l-1.5-0.9c-0.3-0.2-0.5-0.5-0.5-0.9
					C284.8,134,285.1,133.8,285.4,134z"/>
				<path class="st19" d="M285.4,134l1.5,0.9c0.3,0.2,0.5,0.5,0.5,0.9c0,0.3-0.2,0.4-0.5,0.3l-1.5-0.9c-0.3-0.2-0.5-0.5-0.5-0.9
					C284.8,134,285.1,133.8,285.4,134z"/>
				<path class="st8" d="M285.4,137l1.5,0.8c0.3,0.2,0.5,0.5,0.5,0.9c0,0.3-0.2,0.4-0.5,0.3l-1.5-0.9c-0.3-0.2-0.5-0.5-0.5-0.9
					C284.8,137,285.1,136.9,285.4,137z"/>
				<path class="st19" d="M285.4,137l1.5,0.8c0.3,0.2,0.5,0.5,0.5,0.9c0,0.3-0.2,0.4-0.5,0.3l-1.5-0.9c-0.3-0.2-0.5-0.5-0.5-0.9
					C284.8,137,285.1,136.9,285.4,137z"/>
				<path class="st8" d="M289.4,136.4l6.9,4c0.3,0.2,0.5,0.5,0.5,0.9c0,0.3-0.2,0.4-0.5,0.3l-6.9-4c-0.3-0.2-0.5-0.5-0.5-0.9
					C288.9,136.3,289.1,136.2,289.4,136.4z"/>
				<path class="st21" d="M289.4,136.4l6.9,4c0.3,0.2,0.5,0.5,0.5,0.9c0,0.3-0.2,0.4-0.5,0.3l-6.9-4c-0.3-0.2-0.5-0.5-0.5-0.9
					C288.9,136.3,289.1,136.2,289.4,136.4z"/>
				<path class="st8" d="M289.4,139.4l6.9,4c0.3,0.2,0.5,0.5,0.5,0.9c0,0.3-0.2,0.4-0.5,0.3l-6.9-4c-0.3-0.2-0.5-0.5-0.5-0.9
					C288.9,139.3,289.1,139.2,289.4,139.4z"/>
				<path class="st21" d="M289.4,139.4l6.9,4c0.3,0.2,0.5,0.5,0.5,0.9c0,0.3-0.2,0.4-0.5,0.3l-6.9-4c-0.3-0.2-0.5-0.5-0.5-0.9
					C288.9,139.3,289.1,139.2,289.4,139.4z"/>
				<path class="st8" d="M285.4,124.9l1.5,0.9c0.3,0.2,0.5,0.5,0.5,0.9c0,0.3-0.2,0.4-0.5,0.3l-1.5-0.9c-0.3-0.2-0.5-0.5-0.5-0.9
					C284.8,124.8,285.1,124.7,285.4,124.9z"/>
				<path class="st19" d="M285.4,124.9l1.5,0.9c0.3,0.2,0.5,0.5,0.5,0.9c0,0.3-0.2,0.4-0.5,0.3l-1.5-0.9c-0.3-0.2-0.5-0.5-0.5-0.9
					C284.8,124.8,285.1,124.7,285.4,124.9z"/>
				<path class="st8" d="M283.3,126.7l1.5,0.9c0.3,0.2,0.5,0.5,0.5,0.9c0,0.3-0.3,0.4-0.5,0.3l-1.5-0.9c-0.3-0.2-0.5-0.5-0.5-0.9
					C282.8,126.7,283,126.6,283.3,126.7z"/>
				<path class="st19" d="M283.3,126.7l1.5,0.9c0.3,0.2,0.5,0.5,0.5,0.9c0,0.3-0.3,0.4-0.5,0.3l-1.5-0.9c-0.3-0.2-0.5-0.5-0.5-0.9
					C282.8,126.7,283,126.6,283.3,126.7z"/>
				<path class="st8" d="M289.4,127.2l6.9,4c0.3,0.2,0.5,0.5,0.5,0.9c0,0.3-0.2,0.4-0.5,0.3l-6.9-4c-0.3-0.2-0.5-0.5-0.5-0.9
					C288.9,127.2,289.1,127,289.4,127.2z"/>
				<path class="st21" d="M289.4,127.2l6.9,4c0.3,0.2,0.5,0.5,0.5,0.9c0,0.3-0.2,0.4-0.5,0.3l-6.9-4c-0.3-0.2-0.5-0.5-0.5-0.9
					C288.9,127.2,289.1,127,289.4,127.2z"/>
				<path class="st8" d="M287.3,129.1l9,5.2c0.3,0.2,0.5,0.5,0.5,0.9c0,0.3-0.2,0.4-0.5,0.3l-9-5.2c-0.3-0.2-0.5-0.5-0.5-0.9
					C286.8,129,287,128.9,287.3,129.1z"/>
				<path class="st21" d="M287.3,129.1l9,5.2c0.3,0.2,0.5,0.5,0.5,0.9c0,0.3-0.2,0.4-0.5,0.3l-9-5.2c-0.3-0.2-0.5-0.5-0.5-0.9
					C286.8,129,287,128.9,287.3,129.1z"/>
				<path class="st8" d="M283.3,138.9l1.5,0.9c0.3,0.2,0.5,0.5,0.5,0.9c0,0.3-0.3,0.4-0.5,0.3l-1.5-0.8c-0.3-0.2-0.5-0.5-0.5-0.9
					C282.8,138.9,283,138.8,283.3,138.9z"/>
				<path class="st19" d="M283.3,138.9l1.5,0.9c0.3,0.2,0.5,0.5,0.5,0.9c0,0.3-0.3,0.4-0.5,0.3l-1.5-0.8c-0.3-0.2-0.5-0.5-0.5-0.9
					C282.8,138.9,283,138.8,283.3,138.9z"/>
				<path class="st8" d="M287.3,141.3l9,5.2c0.3,0.2,0.5,0.5,0.5,0.9c0,0.3-0.2,0.4-0.5,0.3l-9-5.2c-0.3-0.2-0.5-0.5-0.5-0.9
					C286.8,141.2,287,141.1,287.3,141.3z"/>
				<path class="st21" d="M287.3,141.3l9,5.2c0.3,0.2,0.5,0.5,0.5,0.9c0,0.3-0.2,0.4-0.5,0.3l-9-5.2c-0.3-0.2-0.5-0.5-0.5-0.9
					C286.8,141.2,287,141.1,287.3,141.3z"/>
			</g>
		</g>
		<g>
			<g class="st22">
				<path class="st7" d="M410.8,150.3v76.4c0.1,1.1,0.7,2.1,1.6,2.8l43.9,25.3c0.2,0.1,0.3,0.1,0.5,0.1h0.2h0.1h0.1l0.1-0.1l0.1-0.1
					c0.1-0.1,0.2-0.3,0.3-0.4c0.1-0.3,0.2-0.5,0.2-0.8v-76c-0.1-1.1-0.7-2.1-1.6-2.8l-43.9-25.3c-0.3-0.2-0.7-0.3-1.1-0.1l-0.1,0.1
					l0,0l-0.1,0.1c0,0,0,0,0,0.1c0,0,0,0.1,0,0.1c0,0.1-0.1,0.1-0.1,0.2c0,0,0,0.1,0,0.1l0,0v0.1
					C410.8,150.2,410.8,150.2,410.8,150.3z"/>
			</g>
			<path class="st8" d="M411.3,149.2c0.4-0.1,0.8-0.1,1.1,0.1l43.9,25.3c0.9,0.6,1.5,1.6,1.6,2.8v5.2l2.5-1.5V176
				c-0.1-1.1-0.7-2.1-1.6-2.7L414.9,148c-0.3-0.2-0.8-0.3-1.1-0.1C413.5,148,411.6,149.1,411.3,149.2z"/>
			<path class="st8" d="M410.8,150.3c0-1,0.7-1.4,1.6-0.9l43.9,25.3c0.9,0.6,1.5,1.6,1.6,2.8v5.2l-47-27.1L410.8,150.3z"/>
			<g class="st17">
				<path class="st15" d="M412.4,149.4l43.9,25.3c0.5,0.3,0.9,0.7,1.1,1.2l2.5-1.4c-0.3-0.5-0.6-0.9-1.1-1.1L414.9,148
					c-0.3-0.2-0.8-0.3-1.1-0.1c-0.3,0.2-2.1,1.2-2.4,1.4C411.7,149.1,412.1,149.2,412.4,149.4z"/>
			</g>
			<path class="st11" d="M460.4,181.1V176c0-0.6-0.2-1.1-0.5-1.6l-2.5,1.4c0.3,0.5,0.5,1,0.5,1.6v5.2L460.4,181.1z"/>
			<path class="st7" d="M455.5,176.8c0.6,0.5,0.9,1.2,0.9,1.9c0,0.8-0.4,1.1-0.9,0.9c-0.6-0.5-0.9-1.2-0.9-1.9
				C454.6,176.9,455,176.5,455.5,176.8z"/>
			<path class="st7" d="M452.3,174.9c0.6,0.5,0.9,1.2,0.9,1.9c0,0.8-0.4,1.1-0.9,0.9c-0.6-0.5-0.9-1.2-0.9-1.9
				C451.4,175,451.8,174.6,452.3,174.9z"/>
			<path class="st7" d="M449.1,173.1c0.6,0.5,0.9,1.2,0.9,1.9c0,0.8-0.4,1.1-0.9,0.9c-0.6-0.5-0.9-1.2-0.9-1.9
				C448.2,173.2,448.6,172.8,449.1,173.1z"/>
			<g class="st23">
				<path class="st6" d="M457.3,254.7l0.2-0.1l0.5-0.3l0,0c0.1-0.1,0.2-0.1,0.3-0.1l0,0l0.4-0.2l0.9-0.5l0.2-0.1
					c0.1-0.1,0.2-0.1,0.3-0.2c0.1-0.1,0.2-0.2,0.2-0.3c0.1-0.3,0.2-0.5,0.2-0.8v-70.9l-2.5,1.5v70.8c0,0.3-0.1,0.5-0.2,0.8
					c-0.1,0.2-0.2,0.3-0.3,0.4C457.3,254.7,457.3,254.7,457.3,254.7L457.3,254.7z"/>
			</g>
			<path class="st8" d="M414.4,164.3c0-0.1,0-0.1,0.1-0.2l1.1-1c0,0,0,0,0,0l0,0c0,0,0.1,0.1,0.1,0.1c0,0.1,0,0.1,0,0.2v0.8
				c0,0.1,0,0.1,0,0.2c0,0,0,0.1-0.1,0.1l-0.6,0.6l0.6,1.3c0,0.1,0.1,0.1,0.1,0.2c0,0.1,0,0.2,0,0.2v0.8c0,0.1,0,0.1,0,0.1
				c0,0-0.1,0-0.1,0l0,0l0-0.1l-1.1-2.4c0-0.1-0.1-0.2-0.1-0.3V164.3z"/>
			<path class="st8" d="M418.6,163.1c0-0.1,0-0.1,0.1-0.1c0,0,0.1,0,0.2,0l0.4,0.3c0,0,0.1,0.1,0.1,0.1c0,0.1,0,0.1,0,0.2
				c0,0,0,0,0,0.1l-2,6.1c0,0.1,0,0.1-0.1,0.1c0,0-0.1,0-0.2,0l-0.4-0.2c0,0-0.1-0.1-0.1-0.1c0-0.1,0-0.1,0-0.2c0,0,0-0.1,0-0.1
				L418.6,163.1z"/>
			<path class="st8" d="M421.6,169c0,0.1,0,0.2-0.1,0.2l-1.1,1c0,0,0,0-0.1,0l0,0c0,0-0.1-0.1-0.1-0.1c0-0.1,0-0.1,0-0.2v-0.8
				c0-0.1,0-0.1,0-0.2c0,0,0-0.1,0.1-0.1l0.6-0.6l-0.6-1.2c0-0.1-0.1-0.1-0.1-0.2c0-0.1,0-0.2,0-0.2v-0.8c0,0,0-0.1,0-0.1
				c0,0,0,0,0.1,0l0,0c0,0,0,0,0.1,0.1l1.1,2.4c0,0.1,0.1,0.2,0.1,0.3V169z"/>
			<path class="st8" d="M424.8,172.1c0,0,0.1,0.1,0.1,0.1c0,0.1,0,0.1,0,0.2v0.9c0,0,0,0.1,0,0.1c0,0-0.1,0-0.1,0l-0.5-0.3
				c0,0-0.1-0.1-0.1-0.1c0-0.1,0-0.1,0-0.2V172c0,0,0-0.1,0-0.1c0,0,0.1,0,0.1,0L424.8,172.1z"/>
			<path class="st8" d="M426.6,173.1c0,0,0.1,0.1,0.1,0.1c0,0.1,0,0.1,0,0.2v0.9c0,0,0,0.1,0,0.1c0,0-0.1,0-0.1,0l-0.5-0.3
				c0,0-0.1-0.1-0.1-0.1c0-0.1,0-0.1,0-0.2V173c0-0.1,0-0.1,0-0.1c0,0,0.1,0,0.1,0L426.6,173.1z"/>
			<path class="st8" d="M428.4,174.2c0.1,0,0.1,0.1,0.1,0.1c0,0.1,0,0.1,0,0.2v0.9c0,0,0,0.1,0,0.1c0,0-0.1,0-0.1,0l-0.5-0.3
				c0,0-0.1-0.1-0.1-0.1c0-0.1,0-0.1,0-0.2V174c0-0.1,0-0.1,0-0.1c0,0,0.1,0,0.1,0L428.4,174.2z"/>
			<path class="st8" d="M414.9,171.2l26.4,15.2c0.3,0.2,0.5,0.6,0.6,0.9c0,0.3-0.3,0.5-0.6,0.3l-26.4-15.2c-0.3-0.2-0.5-0.5-0.6-0.9
				C414.4,171.1,414.6,171,414.9,171.2z"/>
			<path class="st1" d="M423.4,190.7l26.4,15.2c0.3,0.2,0.5,0.5,0.6,0.9c0,0.3-0.3,0.5-0.6,0.3l-26.4-15.2c-0.3-0.2-0.5-0.6-0.6-0.9
				C422.8,190.6,423.1,190.5,423.4,190.7z"/>
			<path class="st1" d="M423.4,200.5l12.6,7.3c0.3,0.2,0.5,0.6,0.6,0.9c0,0.3-0.3,0.5-0.6,0.3l-12.6-7.3c-0.3-0.2-0.5-0.5-0.6-0.9
				C422.8,200.4,423.1,200.3,423.4,200.5z"/>
			<path class="st8" d="M443.5,187.6l10.5,6c0.3,0.2,0.5,0.5,0.6,0.9c0,0.3-0.3,0.5-0.6,0.3l-10.5-6c-0.3-0.2-0.5-0.5-0.6-0.9
				C442.9,187.6,443.1,187.5,443.5,187.6z"/>
			<path class="st8" d="M414.9,224.9l26.4,15.2c0.3,0.2,0.5,0.5,0.6,0.9c0,0.3-0.3,0.5-0.6,0.3l-26.4-15.2c-0.3-0.2-0.5-0.6-0.6-0.9
				C414.4,224.8,414.6,224.7,414.9,224.9z"/>
			<path class="st8" d="M443.5,241.4l10.5,6c0.3,0.2,0.5,0.6,0.6,0.9c0,0.3-0.3,0.5-0.6,0.3l-10.5-6c-0.3-0.2-0.5-0.6-0.6-0.9
				C442.9,241.3,443.1,241.2,443.5,241.4z"/>
			<path class="st8" d="M443.5,226.7l10.5,6c0.3,0.2,0.5,0.5,0.6,0.9c0,0.3-0.3,0.5-0.6,0.3l-10.5-6c-0.3-0.2-0.5-0.6-0.6-0.9
				C442.9,226.7,443.1,226.6,443.5,226.7z"/>
			<path class="st8" d="M443.5,231.6l10.5,6c0.3,0.2,0.5,0.5,0.6,0.9c0,0.3-0.3,0.5-0.6,0.3l-10.5-6c-0.3-0.2-0.5-0.6-0.6-0.9
				C442.9,231.6,443.1,231.4,443.5,231.6z"/>
			<path class="st8" d="M434.5,221.6l5.9,3.4c0.3,0.2,0.5,0.5,0.6,0.9c0,0.3-0.3,0.5-0.6,0.3l-5.9-3.4c-0.3-0.2-0.5-0.6-0.6-0.9
				C433.9,221.5,434.2,221.4,434.5,221.6z"/>
			<path class="st8" d="M414.9,176.1l15.4,8.9c0.3,0.2,0.5,0.5,0.6,0.9c0,0.3-0.3,0.5-0.6,0.3l-15.4-8.9c-0.3-0.2-0.5-0.6-0.6-0.9
				C414.4,176,414.6,175.9,414.9,176.1z"/>
			<path class="st19" d="M414.9,176.1l15.4,8.9c0.3,0.2,0.5,0.5,0.6,0.9c0,0.3-0.3,0.5-0.6,0.3l-15.4-8.9c-0.3-0.2-0.5-0.6-0.6-0.9
				C414.4,176,414.6,175.9,414.9,176.1z"/>
			<path class="st8" d="M414.9,180.9l5.2,3c0.3,0.2,0.5,0.5,0.6,0.9c0,0.3-0.3,0.5-0.6,0.3l-5.2-3c-0.3-0.2-0.5-0.5-0.6-0.9
				C414.4,180.9,414.6,180.8,414.9,180.9z"/>
			<path class="st19" d="M414.9,180.9l5.2,3c0.3,0.2,0.5,0.5,0.6,0.9c0,0.3-0.3,0.5-0.6,0.3l-5.2-3c-0.3-0.2-0.5-0.5-0.6-0.9
				C414.4,180.9,414.6,180.8,414.9,180.9z"/>
			<path class="st8" d="M414.9,185.8l5.2,3c0.3,0.2,0.5,0.6,0.6,0.9c0,0.3-0.3,0.5-0.6,0.3l-5.2-3c-0.3-0.2-0.5-0.5-0.6-0.9
				C414.4,185.8,414.6,185.6,414.9,185.8z"/>
			<path class="st19" d="M414.9,185.8l5.2,3c0.3,0.2,0.5,0.6,0.6,0.9c0,0.3-0.3,0.5-0.6,0.3l-5.2-3c-0.3-0.2-0.5-0.5-0.6-0.9
				C414.4,185.8,414.6,185.6,414.9,185.8z"/>
			<path class="st8" d="M414.9,190.7l5.2,3c0.3,0.2,0.5,0.5,0.6,0.9c0,0.3-0.3,0.5-0.6,0.3l-5.2-3c-0.3-0.2-0.5-0.6-0.6-0.9
				C414.4,190.6,414.6,190.5,414.9,190.7z"/>
			<path class="st19" d="M414.9,190.7l5.2,3c0.3,0.2,0.5,0.6,0.6,0.9c0,0.3-0.3,0.5-0.6,0.3l-5.2-3c-0.3-0.2-0.5-0.6-0.6-0.9
				C414.4,190.6,414.6,190.5,414.9,190.7z"/>
			<path class="st24" d="M423.4,195.6l15.4,8.9c0.3,0.2,0.5,0.6,0.6,0.9c0,0.3-0.3,0.5-0.6,0.3l-15.4-8.9c-0.3-0.2-0.5-0.6-0.6-0.9
				C422.8,195.5,423.1,195.4,423.4,195.6z"/>
			<path class="st24" d="M440.9,205.7l6.7,3.9c0.3,0.2,0.5,0.5,0.6,0.9c0,0.3-0.3,0.5-0.6,0.3l-6.7-3.9c-0.3-0.2-0.5-0.5-0.6-0.9
				C440.4,205.7,440.6,205.5,440.9,205.7z"/>
			<path class="st19" d="M423.4,195.6l15.4,8.9c0.3,0.2,0.5,0.6,0.6,0.9c0,0.3-0.3,0.5-0.6,0.3l-15.4-8.9c-0.3-0.2-0.5-0.6-0.6-0.9
				C422.8,195.5,423.1,195.4,423.4,195.6z"/>
			<path class="st19" d="M440.9,205.7l6.7,3.9c0.3,0.2,0.5,0.5,0.6,0.9c0,0.3-0.3,0.5-0.6,0.3l-6.7-3.9c-0.3-0.2-0.5-0.5-0.6-0.9
				C440.4,205.7,440.6,205.5,440.9,205.7z"/>
			<path class="st8" d="M414.9,195.6l5.2,3c0.3,0.2,0.5,0.5,0.6,0.9c0,0.3-0.3,0.5-0.6,0.3l-5.2-3c-0.3-0.2-0.5-0.5-0.6-0.9
				C414.4,195.5,414.6,195.4,414.9,195.6z"/>
			<path class="st19" d="M414.9,195.6l5.2,3c0.3,0.2,0.5,0.5,0.6,0.9c0,0.3-0.3,0.5-0.6,0.3l-5.2-3c-0.3-0.2-0.5-0.5-0.6-0.9
				C414.4,195.5,414.6,195.4,414.9,195.6z"/>
			<path class="st8" d="M432.5,186.2l6.7,3.9c0.3,0.2,0.5,0.6,0.6,0.9c0,0.3-0.3,0.5-0.6,0.3l-6.7-3.9c-0.3-0.2-0.5-0.6-0.6-0.9
				C431.9,186.1,432.2,186,432.5,186.2z"/>
			<path class="st19" d="M432.5,186.2l6.7,3.9c0.3,0.2,0.5,0.6,0.6,0.9c0,0.3-0.3,0.5-0.6,0.3l-6.7-3.9c-0.3-0.2-0.5-0.6-0.6-0.9
				C431.9,186.1,432.2,186,432.5,186.2z"/>
			<path class="st15" d="M429.7,209l15.4,8.9c0.3,0.2,0.5,0.6,0.6,0.9c0,0.3-0.3,0.5-0.6,0.3l-15.4-8.9c-0.3-0.2-0.5-0.5-0.6-0.9
				C429.1,209,429.4,208.8,429.7,209z"/>
			<path class="st15" d="M438.6,219l15.4,8.9c0.3,0.2,0.5,0.6,0.6,0.9c0,0.3-0.3,0.5-0.6,0.3l-15.4-8.9c-0.3-0.2-0.5-0.6-0.6-0.9
				C438,219,438.3,218.9,438.6,219z"/>
			<path class="st15" d="M447.3,219.1l6.7,3.9c0.3,0.2,0.5,0.5,0.6,0.9c0,0.3-0.3,0.5-0.6,0.3l-6.7-3.9c-0.3-0.2-0.5-0.6-0.6-0.9
				C446.7,219.1,447,219,447.3,219.1z"/>
			<path class="st1" d="M447.3,238.5l6.7,3.9c0.3,0.2,0.5,0.6,0.6,0.9c0,0.3-0.3,0.5-0.6,0.3l-6.7-3.9c-0.3-0.2-0.5-0.6-0.6-0.9
				C446.7,238.4,447,238.3,447.3,238.5z"/>
			<path class="st8" d="M423.4,185.8l15.4,8.9c0.3,0.2,0.5,0.5,0.6,0.9c0,0.3-0.3,0.5-0.6,0.3l-15.4-8.9c-0.3-0.2-0.5-0.5-0.6-0.9
				C422.8,185.8,423.1,185.6,423.4,185.8z"/>
			<path class="st19" d="M423.4,185.8l15.4,8.9c0.3,0.2,0.5,0.5,0.6,0.9c0,0.3-0.3,0.5-0.6,0.3l-15.4-8.9c-0.3-0.2-0.5-0.5-0.6-0.9
				C422.8,185.8,423.1,185.6,423.4,185.8z"/>
			<path class="st8" d="M440.9,196l6.7,3.9c0.3,0.2,0.5,0.6,0.6,0.9c0,0.3-0.3,0.5-0.6,0.3l-6.7-3.9c-0.3-0.2-0.5-0.6-0.6-0.9
				C440.4,195.9,440.6,195.8,440.9,196z"/>
			<path class="st19" d="M440.9,196l6.7,3.9c0.3,0.2,0.5,0.6,0.6,0.9c0,0.3-0.3,0.5-0.6,0.3l-6.7-3.9c-0.3-0.2-0.5-0.6-0.6-0.9
				C440.4,195.9,440.6,195.8,440.9,196z"/>
		</g>
		<g id="freepik--Mouse--inject-7">
			<path class="st11" d="M336.1,251.9l9.4,5.4c3.3,1.7,7.3,1.5,10.4-0.5l15.5-11.4c2.8-2,2.6-5-0.4-6.8l-4.7-2.7
				c-3.4-1.7-7.4-1.9-10.9-0.3L336.3,246C333.2,247.6,333.1,250.2,336.1,251.9z"/>
			<path class="st6" d="M371.7,240.5l-10.7,8.4l-7.9,6.2c-0.8,0.4-1.7,0.6-2.5,0.6c-1.3,0.1-2.6-0.2-3.8-0.8l-8.4-4.9l0,0h0
				c-2.8-1.8-3.6-5.5-1.9-8.3c0.1-0.1,0.1-0.2,0.2-0.3l0.3-0.4c1.7-2.2,4.1-3.8,6.8-4.3l4.3-0.9c6.9-1.4,12.6-2.1,13.3-1.6
				L371.7,240.5L371.7,240.5z"/>
			<path class="st8" d="M365.7,245.2l0.6-0.5l-9.5-5.5l8.3-2.6l-0.8-0.5l-8.3,2.6l-5.7-3.3l-1.1,0.2L365.7,245.2z"/>
			<path class="st12" d="M354,254.6L354,254.6L354,254.6l7.6-5.5l10.2-7.4v-1.2c0,0,0-0.1,0-0.1h-0.1c-0.8-0.3-5.2,1.1-10.5,3.2
				l-3.5,1.4c-4.3,1.7-7.1,5.9-7.1,10.5v0.2c0.9,0,1.7-0.3,2.5-0.6L354,254.6z"/>
		</g>
		<g id="freepik--Window--inject-7_1_">
			<g id="freepik--window--inject-7_1_">
				<path class="st7" d="M221.5,8c0,0,0-0.1,0-0.1l0,0c0,0,0-0.1,0-0.1c0-0.1,0-0.1,0.1-0.2c0,0,0-0.1,0-0.1l0-0.1
					c0,0,0.1-0.1,0.1-0.1l0,0c0,0,0.1-0.1,0.1-0.1c0.3-0.1,0.7-0.1,1,0.1l100.9,58.4c0.9,0.6,1.5,1.6,1.5,2.7v73.3l0,0v0.3
					c0,0.4-0.2,0.7-0.5,0.9l-0.1,0l-0.1,0h-0.1c-0.1,0-0.1,0-0.2,0c-0.2,0-0.3-0.1-0.5-0.1h0l0,0l-1.3-0.8L223,84.5
					c-0.9-0.6-1.5-1.6-1.5-2.7V8.2C221.5,8.2,221.5,8.1,221.5,8z"/>
				<path class="st8" d="M222,7.2c0.3-0.1,0.7-0.1,1,0.1l100.9,58.4c0.9,0.6,1.5,1.6,1.5,2.7v5l1.9-1.1v-5c-0.1-1.1-0.6-2.1-1.5-2.7
					L224.9,6.2c-0.3-0.2-0.7-0.3-1.1-0.1C223.5,6.3,222.3,7,222,7.2z"/>
				<path class="st8" d="M221.5,8.2c0-1,0.7-1.4,1.5-0.9l100.9,58.5c0.9,0.6,1.5,1.6,1.5,2.7v5l-104-60.2V8.2z"/>
				<g class="st17">
					<path class="st15" d="M223,7.3l100.9,58.5c0.4,0.3,0.8,0.7,1.1,1.1l1.9-1.1c-0.3-0.5-0.6-0.8-1.1-1.1L224.9,6.2
						c-0.3-0.2-0.8-0.3-1.1-0.1c-0.3,0.2-1.6,0.9-1.9,1.1C222.3,7.1,222.7,7.1,223,7.3z"/>
				</g>
				<path class="st11" d="M327.4,72.3v-5c0-0.6-0.2-1.1-0.5-1.6l-1.9,1.1c0.3,0.5,0.4,1,0.5,1.5v5.1L327.4,72.3z"/>
				<path class="st7" d="M322,66.8c0.6,0.4,0.9,1.1,0.9,1.8c0,0.7-0.4,1.1-0.9,0.8c-0.6-0.4-0.9-1.1-0.9-1.8
					C321.1,66.9,321.5,66.6,322,66.8z"/>
				<path class="st7" d="M318.9,65c0.6,0.4,0.9,1.1,0.9,1.8c0,0.7-0.4,1.1-0.9,0.8c-0.6-0.4-0.9-1.1-0.9-1.8
					C318,65.1,318.4,64.8,318.9,65z"/>
				<path class="st7" d="M315.8,63.3c0.6,0.4,0.9,1.1,0.9,1.8c0,0.7-0.4,1.1-0.9,0.8c-0.6-0.4-0.9-1.1-0.9-1.8
					C314.9,63.3,315.3,63,315.8,63.3z"/>
				<path class="st18" d="M324.9,143L324.9,143l1.7-1c0.4-0.3,0.7-0.7,0.8-1.2c0-0.1,0-0.1,0-0.2V72.3l-2,1.2v68.6
					C325.4,142.4,325.2,142.8,324.9,143L324.9,143L324.9,143L324.9,143z"/>
			</g>
			<g id="freepik--Code--inject-7_1_">
				<path class="st8" d="M252.4,39.3l21.3,12.3c0.3,0.2,0.5,0.5,0.5,0.9c0,0.3-0.2,0.5-0.5,0.3l-21.3-12.3c-0.3-0.2-0.5-0.5-0.5-0.9
					C251.8,39.3,252.1,39.1,252.4,39.3z"/>
				<path class="st1" d="M260.5,62.9l8,4.7c0.3,0.2,0.5,0.5,0.5,0.9c0,0.3-0.2,0.4-0.5,0.3l-8-4.6c-0.3-0.2-0.5-0.5-0.5-0.9
					C259.9,62.8,260.2,62.7,260.5,62.9z"/>
				<path class="st1" d="M260.5,67.6l8,4.6c0.3,0.2,0.5,0.5,0.5,0.9c0,0.3-0.2,0.4-0.5,0.3l-8-4.6c-0.3-0.2-0.5-0.5-0.5-0.9
					C259.9,67.5,260.2,67.4,260.5,67.6z"/>
				<path class="st8" d="M275.7,52.8l42.6,24.6c0.3,0.2,0.5,0.5,0.5,0.9c0,0.3-0.2,0.4-0.5,0.3L275.7,54c-0.3-0.2-0.5-0.5-0.5-0.9
					C275.2,52.8,275.4,52.7,275.7,52.8z"/>
				<path class="st8" d="M260.7,95.9l13,7.5c0.3,0.2,0.5,0.5,0.5,0.9c0,0.3-0.2,0.4-0.5,0.3l-13-7.5c-0.3-0.2-0.5-0.5-0.5-0.9
					C260.1,95.9,260.4,95.7,260.7,95.9z"/>
				<path class="st8" d="M275.7,104.7l42.6,24.7c0.3,0.2,0.5,0.5,0.5,0.9c0,0.3-0.2,0.4-0.5,0.3l-42.6-24.7
					c-0.3-0.2-0.5-0.5-0.5-0.9C275.2,104.6,275.4,104.5,275.7,104.7z"/>
				<path class="st8" d="M252.4,44l10.7,6.2c0.3,0.2,0.5,0.5,0.5,0.9c0,0.3-0.2,0.5-0.5,0.3l-10.7-6.1c-0.3-0.2-0.5-0.5-0.5-0.9
					C251.8,44,252.1,43.9,252.4,44z"/>
				<path class="st19" d="M252.4,44l10.7,6.2c0.3,0.2,0.5,0.5,0.5,0.9c0,0.3-0.2,0.5-0.5,0.3l-10.7-6.1c-0.3-0.2-0.5-0.5-0.5-0.9
					C251.8,44,252.1,43.9,252.4,44z"/>
				<path class="st8" d="M252.4,48.7l5,2.9c0.3,0.2,0.5,0.5,0.5,0.9c0,0.3-0.2,0.4-0.5,0.3l-5-2.9c-0.3-0.2-0.5-0.5-0.5-0.9
					C251.8,48.7,252.1,48.6,252.4,48.7z"/>
				<path class="st19" d="M252.4,48.7l5,2.9c0.3,0.2,0.5,0.5,0.5,0.9c0,0.3-0.2,0.4-0.5,0.3l-5-2.9c-0.3-0.2-0.5-0.5-0.5-0.9
					C251.8,48.7,252.1,48.6,252.4,48.7z"/>
				<path class="st8" d="M252.4,58.2l5,2.9c0.3,0.2,0.5,0.5,0.5,0.9c0,0.3-0.2,0.4-0.5,0.3l-5-2.9c-0.3-0.2-0.5-0.5-0.5-0.9
					C251.8,58.1,252.1,58,252.4,58.2z"/>
				<path class="st19" d="M252.4,58.2l5,2.9c0.3,0.2,0.5,0.5,0.5,0.9c0,0.3-0.2,0.4-0.5,0.3l-5-2.9c-0.3-0.2-0.5-0.5-0.5-0.9
					C251.8,58.1,252.1,58,252.4,58.2z"/>
				<path class="st8" d="M252.4,62.9l5,2.9c0.3,0.2,0.5,0.5,0.5,0.9c0,0.3-0.2,0.5-0.5,0.3l-5-2.9c-0.3-0.2-0.5-0.5-0.5-0.9
					C251.8,62.8,252.1,62.7,252.4,62.9z"/>
				<path class="st19" d="M252.4,62.9l5,2.9c0.3,0.2,0.5,0.5,0.5,0.9c0,0.3-0.2,0.5-0.5,0.3l-5-2.9c-0.3-0.2-0.5-0.5-0.5-0.9
					C251.8,62.8,252.1,62.7,252.4,62.9z"/>
				<path class="st8" d="M265.2,51.4l6.4,3.7c0.3,0.2,0.5,0.5,0.5,0.9c0,0.3-0.2,0.4-0.5,0.3l-6.4-3.7c-0.3-0.2-0.5-0.5-0.5-0.9
					C264.6,51.4,264.9,51.3,265.2,51.4z"/>
				<path class="st19" d="M265.2,51.4l6.4,3.7c0.3,0.2,0.5,0.5,0.5,0.9c0,0.3-0.2,0.4-0.5,0.3l-6.4-3.7c-0.3-0.2-0.5-0.5-0.5-0.9
					C264.6,51.4,264.9,51.3,265.2,51.4z"/>
				<path class="st15" d="M275.1,85.5l43.2,25c0.3,0.2,0.5,0.5,0.5,0.9c0,0.3-0.2,0.4-0.5,0.3l-43.2-25c-0.3-0.2-0.5-0.5-0.5-0.9
					C274.6,85.4,274.8,85.3,275.1,85.5z"/>
				<path class="st15" d="M311.9,102l6.4,3.7c0.3,0.2,0.5,0.5,0.5,0.9c0,0.3-0.2,0.4-0.5,0.3l-6.4-3.7c-0.3-0.2-0.5-0.5-0.5-0.9
					C311.4,102,311.6,101.8,311.9,102z"/>
				<path class="st15" d="M266.6,75.8l43.2,25c0.3,0.2,0.5,0.5,0.5,0.9c0,0.3-0.2,0.4-0.5,0.3l-43.2-25c-0.3-0.2-0.5-0.5-0.5-0.9
					C266.1,75.8,266.3,75.6,266.6,75.8z"/>
				<path class="st8" d="M260.5,53.5l10.7,6.2c0.3,0.2,0.5,0.5,0.5,0.9c0,0.3-0.2,0.4-0.5,0.3l-10.7-6.2c-0.3-0.2-0.5-0.5-0.5-0.9
					C259.9,53.4,260.2,53.3,260.5,53.5z"/>
				<path class="st19" d="M260.5,53.5l10.7,6.2c0.3,0.2,0.5,0.5,0.5,0.9c0,0.3-0.2,0.4-0.5,0.3l-10.7-6.2c-0.3-0.2-0.5-0.5-0.5-0.9
					C259.9,53.4,260.2,53.3,260.5,53.5z"/>
				<path class="st8" d="M273.3,60.9l44.7,26c0.3,0.2,0.5,0.5,0.5,0.9c0,0.3-0.2,0.4-0.5,0.3l-44.7-26c-0.3-0.2-0.5-0.5-0.5-0.9
					C272.8,60.8,273,60.7,273.3,60.9z"/>
				<path class="st19" d="M273.3,60.9l44.7,26c0.3,0.2,0.5,0.5,0.5,0.9c0,0.3-0.2,0.4-0.5,0.3l-44.7-26c-0.3-0.2-0.5-0.5-0.5-0.9
					C272.8,60.8,273,60.7,273.3,60.9z"/>
				<path class="st1" d="M260.5,81.8l57.8,33.5c0.3,0.2,0.5,0.5,0.5,0.9c0,0.3-0.2,0.5-0.5,0.3L260.5,83c-0.3-0.2-0.5-0.5-0.6-0.9
					C259.9,81.8,260.2,81.6,260.5,81.8z"/>
				<path class="st8" d="M252.4,77.1l5,2.9c0.3,0.2,0.5,0.5,0.5,0.9c0,0.3-0.2,0.4-0.5,0.3l-5-2.9c-0.3-0.2-0.5-0.5-0.5-0.9
					C251.8,77.1,252.1,76.9,252.4,77.1z"/>
				<path class="st19" d="M252.4,77.1l5,2.9c0.3,0.2,0.5,0.5,0.5,0.9c0,0.3-0.2,0.4-0.5,0.3l-5-2.9c-0.3-0.2-0.5-0.5-0.5-0.9
					C251.8,77.1,252.1,76.9,252.4,77.1z"/>
				<path class="st1" d="M260.5,86.5l57.8,33.5c0.3,0.2,0.5,0.5,0.5,0.9c0,0.3-0.2,0.4-0.5,0.3l-57.8-33.5c-0.3-0.2-0.5-0.5-0.6-0.9
					C259.9,86.5,260.2,86.4,260.5,86.5z"/>
				<path class="st8" d="M252.4,81.8l5,2.9c0.3,0.2,0.5,0.5,0.5,0.9c0,0.3-0.2,0.4-0.5,0.3l-5-2.9c-0.3-0.2-0.5-0.5-0.5-0.9
					C251.8,81.8,252.1,81.6,252.4,81.8z"/>
				<path class="st19" d="M252.4,81.8l5,2.9c0.3,0.2,0.5,0.5,0.5,0.9c0,0.3-0.2,0.4-0.5,0.3l-5-2.9c-0.3-0.2-0.5-0.5-0.5-0.9
					C251.8,81.8,252.1,81.6,252.4,81.8z"/>
				<path class="st1" d="M260.5,91.2l57.8,33.5c0.3,0.2,0.5,0.5,0.5,0.9c0,0.3-0.2,0.4-0.5,0.3l-57.8-33.5c-0.3-0.2-0.5-0.5-0.6-0.9
					C259.9,91.2,260.2,91.1,260.5,91.2z"/>
				<path class="st8" d="M252.4,86.5l5,2.9c0.3,0.2,0.5,0.5,0.5,0.9c0,0.3-0.2,0.5-0.5,0.3l-5-2.9c-0.3-0.2-0.5-0.5-0.5-0.9
					C251.8,86.5,252.1,86.4,252.4,86.5z"/>
				<path class="st19" d="M252.4,86.5l5,2.9c0.3,0.2,0.5,0.5,0.5,0.9c0,0.3-0.2,0.5-0.5,0.3l-5-2.9c-0.3-0.2-0.5-0.5-0.5-0.9
					C251.8,86.5,252.1,86.4,252.4,86.5z"/>
				<g class="st20">
					<path class="st15" d="M244.6,34.6l2.9,1.7c0.3,0.2,0.5,0.6,0.5,0.9v1.1c0,0.3-0.2,0.5-0.5,0.3l-2.9-1.7
						c-0.3-0.2-0.5-0.5-0.5-0.9v-1.1C244,34.6,244.3,34.4,244.6,34.6z"/>
					<path class="st15" d="M244.6,39.4l2.9,1.7c0.3,0.2,0.5,0.5,0.5,0.9v1.1c0,0.3-0.2,0.5-0.5,0.3l-2.9-1.7
						c-0.3-0.2-0.5-0.6-0.5-0.9v-1.1C244,39.3,244.3,39.2,244.6,39.4z"/>
					<path class="st15" d="M244.6,44.1l2.9,1.7c0.3,0.2,0.5,0.6,0.5,0.9v1.1c0,0.3-0.2,0.5-0.5,0.3l-2.9-1.7
						c-0.3-0.2-0.5-0.5-0.5-0.9v-1.1C244,44.1,244.3,43.9,244.6,44.1z"/>
					<path class="st15" d="M244.6,48.9l2.9,1.7c0.3,0.2,0.5,0.5,0.5,0.9v1.1c0,0.3-0.2,0.5-0.5,0.3l-2.9-1.7
						c-0.3-0.2-0.5-0.6-0.5-0.9v-1.1C244,48.8,244.3,48.7,244.6,48.9z"/>
					<path class="st15" d="M244.6,53.6l2.9,1.7c0.3,0.2,0.5,0.6,0.5,0.9v1.1c0,0.3-0.2,0.5-0.5,0.3l-2.9-1.7
						c-0.3-0.2-0.5-0.5-0.5-0.9v-1.1C244,53.6,244.3,53.4,244.6,53.6z"/>
					<path class="st15" d="M244.6,58.4l2.9,1.7c0.3,0.2,0.5,0.5,0.5,0.9v1.1c0,0.3-0.2,0.5-0.5,0.3l-2.9-1.7
						c-0.3-0.2-0.5-0.6-0.5-0.9v-1.1C244,58.3,244.3,58.2,244.6,58.4z"/>
					<path class="st15" d="M244.6,63.1l2.9,1.7c0.3,0.2,0.5,0.6,0.5,0.9v1.1c0,0.3-0.2,0.5-0.5,0.3l-2.9-1.7
						c-0.3-0.2-0.5-0.5-0.5-0.9v-1.1C244,63.1,244.3,63,244.6,63.1z"/>
					<path class="st15" d="M244.6,67.9l2.9,1.7c0.3,0.2,0.5,0.5,0.5,0.9v1.1c0,0.3-0.2,0.5-0.5,0.3l-2.9-1.7
						c-0.3-0.2-0.5-0.6-0.5-0.9v-1.1C244,67.9,244.3,67.7,244.6,67.9z"/>
					<path class="st15" d="M244.6,72.6l2.9,1.7c0.3,0.2,0.5,0.6,0.5,0.9v1.1c0,0.3-0.2,0.5-0.5,0.3l-2.9-1.7
						c-0.3-0.2-0.5-0.6-0.5-0.9v-1.1C244,72.6,244.3,72.5,244.6,72.6z"/>
					<path class="st15" d="M244.6,77.4l2.9,1.7c0.3,0.2,0.5,0.5,0.5,0.9v1.1c0,0.3-0.2,0.5-0.5,0.3l-2.9-1.7
						c-0.3-0.2-0.5-0.6-0.5-0.9v-1.1C244,77.4,244.3,77.2,244.6,77.4z"/>
					<path class="st15" d="M244.6,82.1l2.9,1.7c0.3,0.2,0.5,0.6,0.5,0.9v1.1c0,0.3-0.2,0.5-0.5,0.3l-2.9-1.7
						c-0.3-0.2-0.5-0.6-0.5-0.9v-1.1C244,82.1,244.3,82,244.6,82.1z"/>
					<path class="st15" d="M244.6,86.9l2.9,1.7c0.3,0.2,0.5,0.6,0.5,0.9v1.1c0,0.3-0.2,0.5-0.5,0.3l-2.9-1.7
						c-0.3-0.2-0.5-0.6-0.5-0.9v-1.1C244,86.9,244.3,86.7,244.6,86.9z"/>
				</g>
				<path class="st6" d="M225,19.1l15.9,9.2c0.6,0.4,1,1.1,1.1,1.9v18.5c0,0.7-0.5,1-1.1,0.6L225,40.1c-0.6-0.4-1-1.1-1.1-1.9V19.8
					C223.9,19.1,224.4,18.8,225,19.1z"/>
				<path class="st8" d="M226.5,37.5l1.5,0.9c0.3,0.2,0.5,0.5,0.5,0.9c0,0.3-0.3,0.4-0.5,0.3l-1.5-0.9c-0.3-0.2-0.5-0.5-0.5-0.9
					C225.9,37.4,226.2,37.3,226.5,37.5z"/>
				<path class="st19" d="M226.5,37.5l1.5,0.9c0.3,0.2,0.5,0.5,0.5,0.9c0,0.3-0.3,0.4-0.5,0.3l-1.5-0.9c-0.3-0.2-0.5-0.5-0.5-0.9
					C225.9,37.4,226.2,37.3,226.5,37.5z"/>
				<path class="st8" d="M226.5,22.3l1.5,0.9c0.3,0.2,0.5,0.5,0.5,0.9c0,0.3-0.3,0.4-0.5,0.3l-1.5-0.8c-0.3-0.2-0.5-0.5-0.5-0.9
					C225.9,22.3,226.2,22.2,226.5,22.3z"/>
				<path class="st19" d="M226.5,22.3l1.5,0.9c0.3,0.2,0.5,0.5,0.5,0.9c0,0.3-0.3,0.4-0.5,0.3l-1.5-0.8c-0.3-0.2-0.5-0.5-0.5-0.9
					C225.9,22.3,226.2,22.2,226.5,22.3z"/>
				<path class="st8" d="M228.5,26.5l1.5,0.8c0.3,0.2,0.5,0.5,0.5,0.9c0,0.3-0.2,0.5-0.5,0.3l-1.5-0.8c-0.3-0.2-0.5-0.5-0.5-0.9
					C228,26.5,228.2,26.4,228.5,26.5z"/>
				<path class="st19" d="M228.5,26.5l1.5,0.8c0.3,0.2,0.5,0.5,0.5,0.9c0,0.3-0.2,0.5-0.5,0.3l-1.5-0.8c-0.3-0.2-0.5-0.5-0.5-0.9
					C228,26.5,228.2,26.4,228.5,26.5z"/>
				<path class="st8" d="M228.5,29.6l1.5,0.9c0.3,0.2,0.5,0.5,0.5,0.9c0,0.3-0.2,0.4-0.5,0.3l-1.5-0.8c-0.3-0.2-0.5-0.5-0.5-0.9
					C228,29.5,228.2,29.4,228.5,29.6z"/>
				<path class="st19" d="M228.5,29.6l1.5,0.9c0.3,0.2,0.5,0.5,0.5,0.9c0,0.3-0.2,0.4-0.5,0.3l-1.5-0.8c-0.3-0.2-0.5-0.5-0.5-0.9
					C228,29.5,228.2,29.4,228.5,29.6z"/>
				<path class="st8" d="M226.5,31.4l1.5,0.9c0.3,0.2,0.5,0.5,0.5,0.9c0,0.3-0.3,0.4-0.5,0.3l-1.5-0.8c-0.3-0.2-0.5-0.5-0.5-0.9
					C225.9,31.4,226.2,31.2,226.5,31.4z"/>
				<path class="st19" d="M226.5,31.4l1.5,0.9c0.3,0.2,0.5,0.5,0.5,0.9c0,0.3-0.3,0.4-0.5,0.3l-1.5-0.8c-0.3-0.2-0.5-0.5-0.5-0.9
					C225.9,31.4,226.2,31.2,226.5,31.4z"/>
				<path class="st8" d="M228.5,35.6l1.5,0.9c0.3,0.2,0.5,0.5,0.5,0.9c0,0.3-0.2,0.4-0.5,0.3l-1.5-0.9c-0.3-0.2-0.5-0.5-0.5-0.9
					C228,35.6,228.2,35.4,228.5,35.6z"/>
				<path class="st19" d="M228.5,35.6l1.5,0.9c0.3,0.2,0.5,0.5,0.5,0.9c0,0.3-0.2,0.4-0.5,0.3l-1.5-0.9c-0.3-0.2-0.5-0.5-0.5-0.9
					C228,35.6,228.2,35.4,228.5,35.6z"/>
				<path class="st8" d="M230.5,24.7l9,5.2c0.3,0.2,0.5,0.5,0.5,0.9c0,0.3-0.2,0.4-0.5,0.3l-9-5.2c-0.3-0.2-0.5-0.5-0.5-0.9
					C230,24.6,230.2,24.5,230.5,24.7z"/>
				<path class="st21" d="M230.5,24.7l9,5.2c0.3,0.2,0.5,0.5,0.5,0.9c0,0.3-0.2,0.4-0.5,0.3l-9-5.2c-0.3-0.2-0.5-0.5-0.5-0.9
					C230,24.6,230.2,24.5,230.5,24.7z"/>
				<path class="st8" d="M230.5,39.8l9,5.2c0.3,0.2,0.5,0.5,0.5,0.9c0,0.3-0.2,0.4-0.5,0.3l-9-5.2c-0.3-0.2-0.5-0.5-0.5-0.9
					C230,39.8,230.2,39.6,230.5,39.8z"/>
				<path class="st21" d="M230.5,39.8l9,5.2c0.3,0.2,0.5,0.5,0.5,0.9c0,0.3-0.2,0.4-0.5,0.3l-9-5.2c-0.3-0.2-0.5-0.5-0.5-0.9
					C230,39.8,230.2,39.6,230.5,39.8z"/>
				<path class="st8" d="M232.6,28.9l6.9,4c0.3,0.2,0.5,0.5,0.5,0.9c0,0.3-0.2,0.4-0.5,0.3l-6.9-4c-0.3-0.2-0.5-0.5-0.5-0.9
					C232,28.8,232.3,28.7,232.6,28.9z"/>
				<path class="st21" d="M232.6,28.9l6.9,4c0.3,0.2,0.5,0.5,0.5,0.9c0,0.3-0.2,0.4-0.5,0.3l-6.9-4c-0.3-0.2-0.5-0.5-0.5-0.9
					C232,28.8,232.3,28.7,232.6,28.9z"/>
				<path class="st8" d="M232.6,31.9l6.9,4c0.3,0.2,0.5,0.5,0.5,0.9c0,0.3-0.2,0.4-0.5,0.3l-6.9-4c-0.3-0.2-0.5-0.5-0.5-0.9
					C232,31.8,232.3,31.7,232.6,31.9z"/>
				<path class="st21" d="M232.6,31.9l6.9,4c0.3,0.2,0.5,0.5,0.5,0.9c0,0.3-0.2,0.4-0.5,0.3l-6.9-4c-0.3-0.2-0.5-0.5-0.5-0.9
					C232,31.8,232.3,31.7,232.6,31.9z"/>
				<path class="st8" d="M230.5,33.7l9,5.2c0.3,0.2,0.5,0.5,0.5,0.9c0,0.3-0.2,0.4-0.5,0.3l-9-5.2c-0.3-0.2-0.5-0.5-0.5-0.9
					C230,33.7,230.2,33.6,230.5,33.7z"/>
				<path class="st21" d="M230.5,33.7l9,5.2c0.3,0.2,0.5,0.5,0.5,0.9c0,0.3-0.2,0.4-0.5,0.3l-9-5.2c-0.3-0.2-0.5-0.5-0.5-0.9
					C230,33.7,230.2,33.6,230.5,33.7z"/>
				<path class="st8" d="M232.6,37.9l6.9,4c0.3,0.2,0.5,0.5,0.5,0.9c0,0.3-0.2,0.4-0.5,0.3l-6.9-4c-0.3-0.2-0.5-0.5-0.5-0.9
					C232,37.9,232.3,37.8,232.6,37.9z"/>
				<path class="st21" d="M232.6,37.9l6.9,4c0.3,0.2,0.5,0.5,0.5,0.9c0,0.3-0.2,0.4-0.5,0.3l-6.9-4c-0.3-0.2-0.5-0.5-0.5-0.9
					C232,37.9,232.3,37.8,232.6,37.9z"/>
				<path class="st6" d="M225,43.6l15.9,9.2c0.6,0.4,1,1.1,1.1,1.9v36.5c0,0.7-0.5,1-1.1,0.6L225,82.5c-0.6-0.4-1-1.1-1.1-1.9V44.2
					C223.9,43.5,224.4,43.2,225,43.6z"/>
				<path class="st8" d="M226.5,46.8l1.5,0.8c0.3,0.2,0.5,0.5,0.5,0.9c0,0.3-0.3,0.4-0.5,0.3l-1.5-0.8c-0.3-0.2-0.5-0.5-0.5-0.9
					C225.9,46.7,226.2,46.6,226.5,46.8z"/>
				<path class="st19" d="M226.5,46.8l1.5,0.8c0.3,0.2,0.5,0.5,0.5,0.9c0,0.3-0.3,0.4-0.5,0.3l-1.5-0.8c-0.3-0.2-0.5-0.5-0.5-0.9
					C225.9,46.7,226.2,46.6,226.5,46.8z"/>
				<path class="st8" d="M228.5,51l1.5,0.8c0.3,0.2,0.5,0.5,0.5,0.9c0,0.3-0.2,0.4-0.5,0.3l-1.5-0.9c-0.3-0.2-0.5-0.5-0.5-0.9
					C228,50.9,228.2,50.8,228.5,51z"/>
				<path class="st19" d="M228.5,51l1.5,0.8c0.3,0.2,0.5,0.5,0.5,0.9c0,0.3-0.2,0.4-0.5,0.3l-1.5-0.9c-0.3-0.2-0.5-0.5-0.5-0.9
					C228,50.9,228.2,50.8,228.5,51z"/>
				<path class="st8" d="M228.5,54l1.5,0.8c0.3,0.2,0.5,0.5,0.5,0.9c0,0.3-0.2,0.4-0.5,0.3l-1.5-0.8c-0.3-0.2-0.5-0.5-0.5-0.9
					C228,53.9,228.2,53.8,228.5,54z"/>
				<path class="st19" d="M228.5,54l1.5,0.8c0.3,0.2,0.5,0.5,0.5,0.9c0,0.3-0.2,0.4-0.5,0.3l-1.5-0.8c-0.3-0.2-0.5-0.5-0.5-0.9
					C228,53.9,228.2,53.8,228.5,54z"/>
				<path class="st8" d="M226.5,55.8l1.5,0.8c0.3,0.2,0.5,0.5,0.5,0.9c0,0.3-0.3,0.4-0.5,0.3l-1.5-0.8c-0.3-0.2-0.5-0.5-0.5-0.9
					C225.9,55.8,226.2,55.7,226.5,55.8z"/>
				<path class="st19" d="M226.5,55.8l1.5,0.8c0.3,0.2,0.5,0.5,0.5,0.9c0,0.3-0.3,0.4-0.5,0.3l-1.5-0.8c-0.3-0.2-0.5-0.5-0.5-0.9
					C225.9,55.8,226.2,55.7,226.5,55.8z"/>
				<path class="st8" d="M230.5,49.1l9,5.2c0.3,0.2,0.5,0.5,0.5,0.9c0,0.3-0.2,0.4-0.5,0.3l-9-5.2c-0.3-0.2-0.5-0.5-0.5-0.9
					C230,49,230.2,48.9,230.5,49.1z"/>
				<path class="st21" d="M230.5,49.1l9,5.2c0.3,0.2,0.5,0.5,0.5,0.9c0,0.3-0.2,0.4-0.5,0.3l-9-5.2c-0.3-0.2-0.5-0.5-0.5-0.9
					C230,49,230.2,48.9,230.5,49.1z"/>
				<path class="st8" d="M232.6,53.3l6.9,4c0.3,0.2,0.5,0.5,0.5,0.9c0,0.3-0.2,0.4-0.5,0.3l-6.9-4c-0.3-0.2-0.5-0.5-0.5-0.9
					C232,53.2,232.3,53.1,232.6,53.3z"/>
				<path class="st21" d="M232.6,53.3l6.9,4c0.3,0.2,0.5,0.5,0.5,0.9c0,0.3-0.2,0.4-0.5,0.3l-6.9-4c-0.3-0.2-0.5-0.5-0.5-0.9
					C232,53.2,232.3,53.1,232.6,53.3z"/>
				<path class="st8" d="M232.6,56.3l6.9,4c0.3,0.2,0.5,0.5,0.5,0.9c0,0.3-0.2,0.5-0.5,0.3l-6.9-4c-0.3-0.2-0.5-0.5-0.5-0.9
					C232,56.3,232.3,56.1,232.6,56.3z"/>
				<path class="st21" d="M232.6,56.3l6.9,4c0.3,0.2,0.5,0.5,0.5,0.9c0,0.3-0.2,0.5-0.5,0.3l-6.9-4c-0.3-0.2-0.5-0.5-0.5-0.9
					C232,56.3,232.3,56.1,232.6,56.3z"/>
				<path class="st8" d="M230.5,58.2l9,5.2c0.3,0.2,0.5,0.5,0.5,0.9c0,0.3-0.2,0.4-0.5,0.3l-9-5.2c-0.3-0.2-0.5-0.5-0.5-0.9
					C230,58.1,230.2,58,230.5,58.2z"/>
				<path class="st21" d="M230.5,58.2l9,5.2c0.3,0.2,0.5,0.5,0.5,0.9c0,0.3-0.2,0.4-0.5,0.3l-9-5.2c-0.3-0.2-0.5-0.5-0.5-0.9
					C230,58.1,230.2,58,230.5,58.2z"/>
				<path class="st8" d="M228.5,60.1l1.5,0.9c0.3,0.2,0.5,0.5,0.5,0.9c0,0.3-0.2,0.4-0.5,0.3l-1.5-0.8c-0.3-0.2-0.5-0.5-0.5-0.9
					C228,60,228.2,59.9,228.5,60.1z"/>
				<path class="st19" d="M228.5,60.1l1.5,0.9c0.3,0.2,0.5,0.5,0.5,0.9c0,0.3-0.2,0.4-0.5,0.3l-1.5-0.8c-0.3-0.2-0.5-0.5-0.5-0.9
					C228,60,228.2,59.9,228.5,60.1z"/>
				<path class="st8" d="M228.5,63.1l1.5,0.9c0.3,0.2,0.5,0.5,0.5,0.9c0,0.3-0.2,0.4-0.5,0.3l-1.5-0.9c-0.3-0.2-0.5-0.5-0.5-0.9
					C228,63,228.2,62.9,228.5,63.1z"/>
				<path class="st19" d="M228.5,63.1l1.5,0.9c0.3,0.2,0.5,0.5,0.5,0.9c0,0.3-0.2,0.4-0.5,0.3l-1.5-0.9c-0.3-0.2-0.5-0.5-0.5-0.9
					C228,63,228.2,62.9,228.5,63.1z"/>
				<path class="st8" d="M232.6,62.4l6.9,4c0.3,0.2,0.5,0.5,0.5,0.9c0,0.3-0.2,0.5-0.5,0.3l-6.9-4c-0.3-0.2-0.5-0.5-0.5-0.9
					C232,62.3,232.3,62.2,232.6,62.4z"/>
				<path class="st21" d="M232.6,62.4l6.9,4c0.3,0.2,0.5,0.5,0.5,0.9c0,0.3-0.2,0.5-0.5,0.3l-6.9-4c-0.3-0.2-0.5-0.5-0.5-0.9
					C232,62.3,232.3,62.2,232.6,62.4z"/>
				<path class="st8" d="M232.6,65.4l6.9,4c0.3,0.2,0.5,0.5,0.5,0.9c0,0.3-0.2,0.4-0.5,0.3l-6.9-4c-0.3-0.2-0.5-0.5-0.5-0.9
					C232,65.4,232.3,65.2,232.6,65.4z"/>
				<path class="st21" d="M232.6,65.4l6.9,4c0.3,0.2,0.5,0.5,0.5,0.9c0,0.3-0.2,0.4-0.5,0.3l-6.9-4c-0.3-0.2-0.5-0.5-0.5-0.9
					C232,65.4,232.3,65.2,232.6,65.4z"/>
				<path class="st8" d="M226.5,71l1.5,0.9c0.3,0.2,0.5,0.5,0.5,0.9c0,0.3-0.3,0.4-0.5,0.3l-1.5-0.9c-0.3-0.2-0.5-0.5-0.5-0.9
					C225.9,70.9,226.2,70.8,226.5,71z"/>
				<path class="st19" d="M226.5,71l1.5,0.9c0.3,0.2,0.5,0.5,0.5,0.9c0,0.3-0.3,0.4-0.5,0.3l-1.5-0.9c-0.3-0.2-0.5-0.5-0.5-0.9
					C225.9,70.9,226.2,70.8,226.5,71z"/>
				<path class="st8" d="M230.5,73.3l9,5.2c0.3,0.2,0.5,0.5,0.5,0.9c0,0.3-0.2,0.4-0.5,0.3l-9-5.2c-0.3-0.2-0.5-0.5-0.5-0.9
					C230,73.3,230.2,73.1,230.5,73.3z"/>
				<path class="st21" d="M230.5,73.3l9,5.2c0.3,0.2,0.5,0.5,0.5,0.9c0,0.3-0.2,0.4-0.5,0.3l-9-5.2c-0.3-0.2-0.5-0.5-0.5-0.9
					C230,73.3,230.2,73.1,230.5,73.3z"/>
				<path class="st8" d="M228.5,75.2l1.5,0.9c0.3,0.2,0.5,0.5,0.5,0.9c0,0.3-0.2,0.4-0.5,0.3l-1.5-0.9c-0.3-0.2-0.5-0.5-0.5-0.9
					C228,75.2,228.2,75,228.5,75.2z"/>
				<path class="st19" d="M228.5,75.2l1.5,0.9c0.3,0.2,0.5,0.5,0.5,0.9c0,0.3-0.2,0.4-0.5,0.3l-1.5-0.9c-0.3-0.2-0.5-0.5-0.5-0.9
					C228,75.2,228.2,75,228.5,75.2z"/>
				<path class="st8" d="M228.5,78.2l1.5,0.8c0.3,0.2,0.5,0.5,0.5,0.9c0,0.3-0.2,0.4-0.5,0.3l-1.5-0.9c-0.3-0.2-0.5-0.5-0.5-0.9
					C228,78.2,228.2,78.1,228.5,78.2z"/>
				<path class="st19" d="M228.5,78.2l1.5,0.8c0.3,0.2,0.5,0.5,0.5,0.9c0,0.3-0.2,0.4-0.5,0.3l-1.5-0.9c-0.3-0.2-0.5-0.5-0.5-0.9
					C228,78.2,228.2,78.1,228.5,78.2z"/>
				<path class="st8" d="M232.6,77.6l6.9,4c0.3,0.2,0.5,0.5,0.5,0.9c0,0.3-0.2,0.4-0.5,0.3l-6.9-4c-0.3-0.2-0.5-0.5-0.5-0.9
					C232,77.5,232.3,77.4,232.6,77.6z"/>
				<path class="st21" d="M232.6,77.6l6.9,4c0.3,0.2,0.5,0.5,0.5,0.9c0,0.3-0.2,0.4-0.5,0.3l-6.9-4c-0.3-0.2-0.5-0.5-0.5-0.9
					C232,77.5,232.3,77.4,232.6,77.6z"/>
				<path class="st8" d="M232.6,80.6l6.9,4c0.3,0.2,0.5,0.5,0.5,0.9c0,0.3-0.2,0.4-0.5,0.3l-6.9-4c-0.3-0.2-0.5-0.5-0.5-0.9
					C232,80.5,232.3,80.4,232.6,80.6z"/>
				<path class="st21" d="M232.6,80.6l6.9,4c0.3,0.2,0.5,0.5,0.5,0.9c0,0.3-0.2,0.4-0.5,0.3l-6.9-4c-0.3-0.2-0.5-0.5-0.5-0.9
					C232,80.5,232.3,80.4,232.6,80.6z"/>
				<path class="st8" d="M228.5,66.1l1.5,0.9c0.3,0.2,0.5,0.5,0.5,0.9c0,0.3-0.2,0.4-0.5,0.3l-1.5-0.9c-0.3-0.2-0.5-0.5-0.5-0.9
					C228,66,228.2,65.9,228.5,66.1z"/>
				<path class="st19" d="M228.5,66.1l1.5,0.9c0.3,0.2,0.5,0.5,0.5,0.9c0,0.3-0.2,0.4-0.5,0.3l-1.5-0.9c-0.3-0.2-0.5-0.5-0.5-0.9
					C228,66,228.2,65.9,228.5,66.1z"/>
				<path class="st8" d="M226.5,67.9l1.5,0.9c0.3,0.2,0.5,0.5,0.5,0.9c0,0.3-0.3,0.4-0.5,0.3l-1.5-0.9c-0.3-0.2-0.5-0.5-0.5-0.9
					C225.9,67.9,226.2,67.8,226.5,67.9z"/>
				<path class="st19" d="M226.5,67.9l1.5,0.9c0.3,0.2,0.5,0.5,0.5,0.9c0,0.3-0.3,0.4-0.5,0.3l-1.5-0.9c-0.3-0.2-0.5-0.5-0.5-0.9
					C225.9,67.9,226.2,67.8,226.5,67.9z"/>
				<path class="st8" d="M232.6,68.4l6.9,4c0.3,0.2,0.5,0.5,0.5,0.9c0,0.3-0.2,0.4-0.5,0.3l-6.9-4c-0.3-0.2-0.5-0.5-0.5-0.9
					C232,68.4,232.3,68.2,232.6,68.4z"/>
				<path class="st21" d="M232.6,68.4l6.9,4c0.3,0.2,0.5,0.5,0.5,0.9c0,0.3-0.2,0.4-0.5,0.3l-6.9-4c-0.3-0.2-0.5-0.5-0.5-0.9
					C232,68.4,232.3,68.2,232.6,68.4z"/>
				<path class="st8" d="M230.5,70.3l9,5.2c0.3,0.2,0.5,0.5,0.5,0.9c0,0.3-0.2,0.4-0.5,0.3l-9-5.2c-0.3-0.2-0.5-0.5-0.5-0.9
					C230,70.2,230.2,70.1,230.5,70.3z"/>
				<path class="st21" d="M230.5,70.3l9,5.2c0.3,0.2,0.5,0.5,0.5,0.9c0,0.3-0.2,0.4-0.5,0.3l-9-5.2c-0.3-0.2-0.5-0.5-0.5-0.9
					C230,70.2,230.2,70.1,230.5,70.3z"/>
				<path class="st8" d="M226.5,80.1l1.5,0.9c0.3,0.2,0.5,0.5,0.5,0.9c0,0.3-0.3,0.4-0.5,0.3l-1.5-0.8c-0.3-0.2-0.5-0.5-0.5-0.9
					C225.9,80.1,226.2,80,226.5,80.1z"/>
				<path class="st19" d="M226.5,80.1l1.5,0.9c0.3,0.2,0.5,0.5,0.5,0.9c0,0.3-0.3,0.4-0.5,0.3l-1.5-0.8c-0.3-0.2-0.5-0.5-0.5-0.9
					C225.9,80.1,226.2,80,226.5,80.1z"/>
				<path class="st8" d="M230.5,82.5l9,5.2c0.3,0.2,0.5,0.5,0.5,0.9c0,0.3-0.2,0.4-0.5,0.3l-9-5.2c-0.3-0.2-0.5-0.5-0.5-0.9
					C230,82.4,230.2,82.3,230.5,82.5z"/>
				<path class="st21" d="M230.5,82.5l9,5.2c0.3,0.2,0.5,0.5,0.5,0.9c0,0.3-0.2,0.4-0.5,0.3l-9-5.2c-0.3-0.2-0.5-0.5-0.5-0.9
					C230,82.4,230.2,82.3,230.5,82.5z"/>
			</g>
		</g>
	</g>
</g>
<g id="freepik--Plant--inject-7">
	<g id="freepik--Pot--inject-7">
		<path class="st8" d="M372.7,405.5c-10.4-10.7-16.5-54.3-6.4-62.8h51.5c10.1,8.5,4,52.1-6.3,62.8l-0.3,0.3
			c-0.1,0.1-0.2,0.2-0.4,0.4c-0.3,0.3-0.6,0.6-0.9,0.8l-0.3,0.2c-0.3,0.2-0.5,0.4-0.8,0.6c-0.4,0.3-0.9,0.6-1.3,0.9
			c-8.5,5-22.4,5-30.9,0l0,0c-0.5-0.3-0.9-0.6-1.4-0.9c-0.3-0.2-0.5-0.4-0.7-0.6l-0.3-0.2c-0.3-0.3-0.6-0.5-0.9-0.8
			c-0.1-0.1-0.3-0.3-0.4-0.4C372.9,405.7,372.8,405.6,372.7,405.5z"/>
		<g class="st17">
			<path class="st15" d="M372.7,405.5c-10.4-10.7-16.5-54.3-6.4-62.8h51.5c10.1,8.5,4,52.1-6.3,62.8l-0.3,0.3
				c-0.1,0.1-0.2,0.2-0.4,0.4c-0.3,0.3-0.6,0.6-0.9,0.8l-0.3,0.2c-0.3,0.2-0.5,0.4-0.8,0.6c-0.4,0.3-0.9,0.6-1.3,0.9
				c-8.5,5-22.4,5-30.9,0l0,0c-0.5-0.3-0.9-0.6-1.4-0.9c-0.3-0.2-0.5-0.4-0.7-0.6l-0.3-0.2c-0.3-0.3-0.6-0.5-0.9-0.8
				c-0.1-0.1-0.3-0.3-0.4-0.4C372.9,405.7,372.8,405.6,372.7,405.5z"/>
		</g>
		<path class="st8" d="M413.4,339.3c11.8,6.9,11.8,18,0,24.9s-30.8,6.9-42.6,0s-11.8-18,0-24.9S401.6,332.5,413.4,339.3z"/>
		<g class="st25">
			<path class="st15" d="M413.4,339.3c11.8,6.9,11.8,18,0,24.9s-30.8,6.9-42.6,0s-11.8-18,0-24.9S401.6,332.5,413.4,339.3z"/>
		</g>
		<path class="st8" d="M407.7,342.6c8.6,5,8.6,13.2,0,18.3s-22.6,5-31.3,0s-8.6-13.2,0-18.3S399.1,337.6,407.7,342.6z"/>
		<g class="st26">
			<path d="M407.7,342.6c8.6,5,8.6,13.2,0,18.3s-22.6,5-31.3,0s-8.6-13.2,0-18.3S399.1,337.6,407.7,342.6z"/>
		</g>
		<path class="st0" d="M376.5,351.3c8.6-5,22.6-5,31.3,0c2.1,1.1,3.9,2.8,5.2,4.8c-1.3,2-3.1,3.7-5.2,4.8c-8.6,5-22.6,5-31.3,0
			c-2.1-1.1-3.9-2.8-5.2-4.8C372.6,354.1,374.4,352.4,376.5,351.3z"/>
		<g id="freepik--Plants--inject-7">
			<path class="st8" d="M387.9,329.3c-0.6-1.2-1-2.5-1.3-3.8c-0.6-3.1,0.2-6.7,2.7-8.7c1-0.8,2.3-1.3,2.8-2.5c0.2-0.7,0.2-1.4,0-2.1
				c-0.5-2.7-1.4-5.4-0.6-8c0.8-2.4,2.6-4.4,5-5.4c2.3-1,4.8-1.6,7.3-1.9c1.3-0.1,2.6-0.5,3.9-1.1c1.4-0.8,1.9-2.2,2.8-3.5
				c1-1.4,2.2-2.6,3.5-3.8c2.6-2.3,5.9-4.3,9.5-4.1c7.6,0.3,7.4,6.9,5.2,11.8s-2.8,6.5,2,11.7s4.7,11.5-0.9,15s-9.3,4-7.1,10.9
				c2,6.1,3.2,11.3-2.4,17.9c-3.6,4.2-8.6,7.2-14.9,7c-2.5-0.2-5-0.8-7.3-1.7c-1.7-0.9-0.6-2.2-1.1-3.9l-3.7-10.9
				c-0.8-2.9-1.8-5.8-3-8.6C389.4,332.1,388.6,330.7,387.9,329.3z"/>
			<g>
				<path class="st27" d="M387.9,329.3c-0.6-1.2-1-2.5-1.3-3.8c-0.6-3.1,0.2-6.7,2.7-8.7c1-0.8,2.3-1.3,2.8-2.5
					c0.2-0.7,0.2-1.4,0-2.1c-0.5-2.7-1.4-5.4-0.6-8c0.8-2.4,2.6-4.4,5-5.4c2.3-1,4.8-1.6,7.3-1.9c1.3-0.1,2.6-0.5,3.9-1.1
					c1.4-0.8,1.9-2.2,2.8-3.5c1-1.4,2.2-2.6,3.5-3.8c2.6-2.3,5.9-4.3,9.5-4.1c7.6,0.3,7.4,6.9,5.2,11.8s-2.8,6.5,2,11.7
					s4.7,11.5-0.9,15s-9.3,4-7.1,10.9c2,6.1,3.2,11.3-2.4,17.9c-3.6,4.2-8.6,7.2-14.9,7c-2.5-0.2-5-0.8-7.3-1.7
					c-1.7-0.9-0.6-2.2-1.1-3.9l-3.7-10.9c-0.8-2.9-1.8-5.8-3-8.6C389.4,332.1,388.6,330.7,387.9,329.3z"/>
			</g>
			<path class="st15" d="M398.2,357c0.2-0.1,0.4-0.3,0.4-0.5c-0.3-37.4,20.3-59.8,20.5-60c0.2-0.2,0.2-0.6,0-0.8
				c-0.2-0.2-0.6-0.2-0.8,0c-0.2,0.2-21.1,22.9-20.8,60.8c0,0.3,0.2,0.6,0.5,0.6c0,0,0,0,0,0L398.2,357z"/>
			<path class="st15" d="M404.2,322.2l0.1,0c6.7-4.2,18.7-7.4,18.8-7.4c0.3-0.1,0.5-0.4,0.4-0.7c-0.1-0.3-0.4-0.5-0.7-0.4
				c0,0,0,0,0,0c-0.5,0.1-12.3,3.2-19.1,7.5c-0.3,0.2-0.3,0.5-0.2,0.8c0,0,0,0,0,0C403.7,322.2,403.9,322.3,404.2,322.2z"/>
			<path class="st15" d="M406.3,317L406.3,317c0.3-0.1,0.4-0.5,0.3-0.7c-1.6-3.7-3.7-7.2-6.2-10.4c-0.2-0.2-0.5-0.3-0.8-0.1
				c0,0,0,0,0,0c-0.2,0.2-0.3,0.6-0.1,0.8c2.5,3.1,4.5,6.5,6,10.1C405.6,317,406,317.1,406.3,317C406.2,317,406.3,317,406.3,317z"/>
			<path class="st8" d="M392.9,361c-5.3,1.7-11,1.9-16.4,0.6c-9.4-2-15.2-10.8-15.2-10.8s10.2-4.1,16.1-4.5
				c-5.9-0.9-12-0.8-17.9,0.4c0,0-5.5-2-4.4-11.2c0,0,5.1-3.8,17-2.3c0,0-5.9-4.2-16.3-5.5c-0.8,0,0.3-12,1.3-17.4s3-4.5,7.2-4.1
				s16.8,3.3,18.4,6.4s0,10.9,0,10.9c2.2-3,3.4-6.6,3.5-10.3c0,0,4.7,1.7,7.3,4c1.9,1.5,3.4,3.5,4.5,5.7c-0.6,4.2-2.6,10.6-5.4,14.2
				c0,0,6.3-4,7.7-11.5c3.1,4.3,4.9,9.4,5,14.6C405.2,349.8,401,356.7,392.9,361z"/>
			<path class="st28" d="M392.9,361c-5.3,1.7-11,1.9-16.4,0.6c-9.4-2-15.2-10.8-15.2-10.8s10.2-4.1,16.1-4.5
				c-5.9-0.9-12-0.8-17.9,0.4c0,0-5.5-2-4.4-11.2c0,0,5.1-3.8,17-2.3c0,0-5.9-4.2-16.3-5.5c-0.8,0,0.3-12,1.3-17.4s3-4.5,7.2-4.1
				s16.8,3.3,18.4,6.4s0,10.9,0,10.9c2.2-3,3.4-6.6,3.5-10.3c0,0,4.7,1.7,7.3,4c1.9,1.5,3.4,3.5,4.5,5.7c-0.6,4.2-2.6,10.6-5.4,14.2
				c0,0,6.3-4,7.7-11.5c3.1,4.3,4.9,9.4,5,14.6C405.2,349.8,401,356.7,392.9,361z"/>
			<path class="st15" d="M394.2,360.2c-0.2-0.1-0.3-0.3-0.3-0.5c-1.4-17.9-21.4-45.8-30.2-51.4c-0.2-0.2-0.3-0.5-0.2-0.8
				c0.2-0.2,0.5-0.3,0.7-0.2c9,5.7,29.3,34,30.7,52.2c0,0.3-0.2,0.6-0.5,0.6c0,0,0,0,0,0C394.3,360.2,394.2,360.2,394.2,360.2z"/>
		</g>
	</g>
</g>
<g id="freepik--Character--inject-7">
	<g id="freepik--character--inject-7">
		<path class="st29" d="M213.5,349c0-0.2-3.2-11.8-3.2-11.8s1.1,1.1,7.8-0.7c2.5-0.8,5-1.8,7.3-3.1l1.9,8.5c1.8,3.3,7.7,1.8,14.2,1
			c1.1-0.1,2.2-0.3,3.3-0.5h0.1c3.5-0.2,7,1.9,3.4,4.9s-9.6,4.1-15.2,5.1C226.4,353.7,214.7,355.6,213.5,349z"/>
		<path class="st12" d="M260,348c0.5,1.1,0.6,2.4,0.5,3.6c-0.1,1.3-3.3,5.7-9,8.4s-12.6,2.9-15.9,3.8s-6.3,2.8-10.1,3.8
			s-7.7,1.4-11.5-1.1c-0.7-1.1-1.5-3.6-1.3-3.9C213.4,361.8,260,348,260,348z"/>
		<path class="st8" d="M228.3,343.1c2.5,1.7,7.6,0.5,13.2-0.1c5.2-0.6,11.1-2.4,14.7-1.2c3.6,1.2,6.5,5.4,1.7,10.8
			c-1.4,1.5-4.3,4.3-6.7,5.1c-6,2.1-11.3,2.3-15.2,3.3c-5,1.2-7.7,3.5-12.4,4c-6,0.7-9.8-0.8-10.8-2.4s-2-14.5,0.6-14.2
			c0,0,1.1,4.2,10.9,0.1C228.5,346.6,228.4,344,228.3,343.1z"/>
		<path class="st30" d="M228.3,343.1c2.5,1.7,7.6,0.5,13.2-0.1c5.2-0.6,11.1-2.4,14.7-1.2c3.6,1.2,6.5,5.4,1.7,10.8
			c-1.4,1.5-4.3,4.3-6.7,5.1c-6,2.1-11.3,2.3-15.2,3.3c-5,1.2-7.7,3.5-12.4,4c-6,0.7-9.8-0.8-10.8-2.4s-2-14.5,0.6-14.2
			c0,0,1.1,4.2,10.9,0.1C228.5,346.6,228.4,344,228.3,343.1z"/>
		<path class="st31" d="M244.9,350c0,0-0.6-5.4-4.6-6.9c-0.7-0.3-1.6-0.2-2.2,0.3c0,0,3.7,0.5,5,6.9c0,0,0.2,0.4,1,0.3
			C244.3,350.5,244.9,350.4,244.9,350z"/>
		<path class="st31" d="M234.6,343.8c0,0,0-0.2,0.9-0.4c0.4-0.1,0.8,0,1.1,0.1c0,0,3,1.3,3.6,7c0,0,0,0.7-0.9,0.9
			c-0.4,0.2-0.9-0.1-1-0.5c0,0,0,0,0-0.1C238.2,350.9,237.6,344.9,234.6,343.8z"/>
		<path class="st31" d="M231.4,343.9c0,0,0.2-0.3,0.9-0.3c0.9,0,1.1,0.4,1.1,0.4s2.1,2.2,2.2,7c0,0,0.1,0.8-1,0.9s-1-0.8-1-0.8
			S233.1,344.9,231.4,343.9z"/>
		<path class="st6" d="M209.4,270.2c4.9,14.7,17.9,65.5,17.9,65.5s-8.5,7.6-17.6,4.1l-21.9-63.2L209.4,270.2z"/>
		<path class="st29" d="M247.1,365.4c-1-1.5-4.8-11.8-4.8-11.8s3.9,2.2,10.7,0.6c3.4-0.8,6.6-4.5,6.6-4.5l2.9,9.9
			c1.7,3.3,7.2,2.2,13.7,1.6c1.1-0.1,2.2-0.3,3.3-0.4h0.1c3.5-0.1,7,2.1,3.3,5s-9.7,3.9-15.3,4.7C261,371.6,250.9,371,247.1,365.4z"
			/>
		<path class="st12" d="M297.6,365.1c0.5,1.2,0.6,2.5,0.4,3.8c-0.2,1.4-3.7,6-9.8,8.7s-13.6,2.7-17.2,3.7s-6.8,2.9-11,3.8
			s-8.3,1.3-12.3-1.5c-0.7-1.2-1.5-3.9-1.3-4.2C247.1,378.7,297.6,365.1,297.6,365.1z"/>
		<path class="st8" d="M263.6,358.9c0.4,0.3,0.8,0.5,1.2,0.8c0.4,0.2,0.9,0.3,1.4,0.3c1.1,0.1,2.2,0.1,3.3,0.1
			c2.7-0.1,5.5-0.5,8.2-0.8c5.6-0.5,12-2.3,15.8-0.9s7.3,6,1.9,11.6c-2,2.2-4.4,4-7.1,5.4c-6.3,2.6-12.8,2.1-17,3.1
			c-5.4,1.2-8.4,3.5-13.4,4c-6.4,0.6-10.5-1.2-11.5-2.9c-0.6-1,0.1-6-0.7-10c-0.7-3.4-0.5-5.7,0.7-5.5c0.3,0.4,0.6,0.8,0.9,1.2
			c0.4,0.5,0.9,0.9,1.4,1.1c0.8,0.4,1.6,0.6,2.4,0.8c1.5,0.4,3,0.7,4.5,0.6c0.4,0,0.9-0.1,1.2-0.4c0.4-0.4,0.7-0.9,0.7-1.5
			c0.1-0.5,0.2-1,0.3-1.5c0-0.3,0.1-0.5,0.3-0.8c0.2-0.3,0.5-0.5,0.8-0.6c1-0.4,1.8-1.1,2.5-1.9c0.4-0.7,0.6-1.5,0.7-2.3
			c0-0.1,0.1-0.3,0.2-0.4c0.2-0.1,0.5,0,0.6,0.1L263.6,358.9z"/>
		<path class="st30" d="M263.6,358.9c0.4,0.3,0.8,0.5,1.2,0.8c0.4,0.2,0.9,0.3,1.4,0.3c1.1,0.1,2.2,0.1,3.3,0.1
			c2.7-0.1,5.5-0.5,8.2-0.8c5.6-0.5,12-2.3,15.8-0.9s7.3,6,1.9,11.6c-2,2.2-4.4,4-7.1,5.4c-6.3,2.6-12.8,2.1-17,3.1
			c-5.4,1.2-8.4,3.5-13.4,4c-6.4,0.6-10.5-1.2-11.5-2.9c-0.6-1,0.1-6-0.7-10c-0.7-3.4-0.5-5.7,0.7-5.5c0.3,0.4,0.6,0.8,0.9,1.2
			c0.4,0.5,0.9,0.9,1.4,1.1c0.8,0.4,1.6,0.6,2.4,0.8c1.5,0.4,3,0.7,4.5,0.6c0.4,0,0.9-0.1,1.2-0.4c0.4-0.4,0.7-0.9,0.7-1.5
			c0.1-0.5,0.2-1,0.3-1.5c0-0.3,0.1-0.5,0.3-0.8c0.2-0.3,0.5-0.5,0.8-0.6c1-0.4,1.8-1.1,2.5-1.9c0.4-0.7,0.6-1.5,0.7-2.3
			c0-0.1,0.1-0.3,0.2-0.4c0.2-0.1,0.5,0,0.6,0.1L263.6,358.9z"/>
		<path class="st31" d="M281.2,366.8c0,0-0.5-5.9-4.7-7.5c-0.8-0.4-1.7-0.3-2.4,0.3c0,0,4,0.7,5.1,7.6c0,0,0.2,0.5,1.1,0.3
			C280.6,367.4,281.2,367.3,281.2,366.8z"/>
		<path class="st31" d="M270.4,359.9c0,0,0-0.2,1-0.4c0.4-0.1,0.8,0,1.2,0.2c0,0,3.2,1.5,3.6,7.6c0,0,0,0.7-1,0.9
			c-0.5,0.2-1-0.1-1.1-0.6c0,0,0,0,0-0.1C274.1,367.6,273.6,361.2,270.4,359.9z"/>
		<path class="st31" d="M266.9,360c0,0,0.2-0.4,1-0.3c1,0,1.2,0.4,1.2,0.4s2.2,2.4,2.1,7.5c0,0,0.1,0.9-1.1,0.9s-1-0.9-1-0.9
			S268.8,361,266.9,360z"/>
		<path class="st32" d="M243.8,287.6c3.9,11.9,13.7,45.7,18.2,63c0,0-8.1,7.3-18.5,6.6l-25.1-65.1l10-6.2L243.8,287.6z"/>
		<path class="st7" d="M161.2,450c0.9,0,1.6-0.7,1.6-1.6l0,0V343.8c0-0.9-0.7-1.6-1.6-1.6c-0.9,0-1.6,0.7-1.6,1.6v104.6
			C159.6,449.3,160.3,450,161.2,450z"/>
		<path class="st7" d="M96.5,412c0.7,0,1.3-0.4,1.5-1l32.1-81.2c0.4-0.8,0.1-1.8-0.7-2.2s-1.8-0.1-2.2,0.7c0,0.1-0.1,0.2-0.1,0.3
			L95,409.7c-0.3,0.8,0.1,1.8,0.9,2.1C96.1,411.9,96.3,412,96.5,412z"/>
		<path class="st7" d="M100.4,402.2c0.4,0,0.9-0.2,1.2-0.5l59.7-63.1l59.6,62.9c0.7,0.6,1.7,0.6,2.3-0.1c0.6-0.6,0.6-1.5,0.1-2.2
			l-60.8-64.1c-0.3-0.3-0.7-0.5-1.2-0.5l0,0c-0.4,0-0.9,0.2-1.2,0.5l-60.9,64.4c-0.6,0.7-0.6,1.7,0.1,2.3
			C99.6,402,100,402.2,100.4,402.2L100.4,402.2z"/>
		<path class="st7" d="M225.9,412c0.2,0,0.4,0,0.6-0.1c0.8-0.3,1.2-1.3,0.9-2.1l-32.1-81.2c-0.2-0.9-1.1-1.4-2-1.2
			c-0.9,0.2-1.4,1.1-1.2,2c0,0.1,0.1,0.3,0.2,0.4l32.1,81.2C224.7,411.6,225.3,412,225.9,412z"/>
		<path class="st8" d="M226.7,307.9c1.2-6.6-4.2-11.7-14.2-18.5c-9.3-6.1-19-11.6-29.1-16.4c-8.4-3.9-17-3.5-27.8,2
			c-15,7.7-60,35-60,35s67.3,38,80.3,36.3s45.3-22.8,47.9-30.2S226.7,307.9,226.7,307.9z"/>
		<g class="st33">
			<path d="M226.7,307.9c1.2-6.6-4.2-11.7-14.2-18.5c-9.3-6.1-19-11.6-29.1-16.4c-8.4-3.9-17-3.5-27.8,2c-15,7.7-60,35-60,35
				s67.3,38,80.3,36.3s45.3-22.8,47.9-30.2S226.7,307.9,226.7,307.9z"/>
		</g>
		<path class="st8" d="M169.4,338.4c9.7,8.8,19.8,1.2,35.7-9.1c18.1-11.7,21.6-21.3,21.6-21.3s0,7.2-1.4,10.6s-4.3,7.2-17.3,16.2
			s-22.5,13.5-31.3,15.2l-6.9-1"/>
		<path class="st34" d="M205.1,329.3c18.1-11.7,21.6-21.3,21.6-21.3s0,7.2-1.4,10.6s-4.3,7.2-17.3,16.2s-22.5,13.5-31.3,15.2l-6.9-1
			l-0.5-10.5C179,347.2,189.1,339.6,205.1,329.3z"/>
		<path class="st8" d="M99,399.2l-5,11.4c0,0.1,0,0.2-0.1,0.3c0,0.1,0,0.1,0,0.2c0.1,0.3,0.3,0.6,0.6,0.8c0.8,0.5,1.8,0.5,2.7,0.1
			c0.2-0.1,0.4-0.3,0.6-0.5l0,0v-0.1l4.6-10.7L99,399.2z"/>
		<path class="st8" d="M223.7,399.7l4.3,11.2c0,0.1,0,0.2,0,0.3v0.2c-0.1,0.3-0.3,0.6-0.6,0.7c-0.8,0.4-1.8,0.4-2.6,0
			c-0.2-0.1-0.4-0.3-0.5-0.5l0,0v-0.2l-3.9-10.5L223.7,399.7z"/>
		<path class="st8" d="M159.4,440.3v9.3c0,0.3,0.3,0.6,0.6,0.8c0.8,0.4,1.8,0.4,2.7,0c0.3-0.1,0.5-0.4,0.5-0.8v-9.3
			C161.9,439.7,160.5,439.7,159.4,440.3z"/>
		<path class="st32" d="M122.5,268.7c3.8,4.5,38.7-5.6,48-6.8c14.9-2,27-3.5,32.1-1.9s7.2,4.2,8.8,10.2c1.8,7.1,2.8,10.8,2.8,10.8
			s-24.8,9.5-44.3,11.8S122.5,268.7,122.5,268.7z"/>
		<path class="st32" d="M116,275.3c-3.9,14.7-7.3,31.9,1.6,41.3c6,6.3,36.3,22.7,55.8,16.3c19.2-6.4,59.1-36,63.1-38.9
			s7.6-5,7.3-6.3c-5.4-17.8-13.2-19.2-27.8-16c-17.8,3.9-56.9,19.9-56.9,19.9L116,275.3z"/>
		<polygon class="st29" points="204.5,180.5 191.1,195.7 169.4,185.4 184.6,164.4 		"/>
		<path class="st35" d="M221.2,151.7c0,0,5.5,7.9,4.9,8.8s-4.5,1.6-4.5,1.6L221.2,151.7z"/>
		<path class="st12" d="M221.1,156.9c-3.6,0-6.6-2.9-6.6-6.6s2.9-6.6,6.6-6.6s6.6,2.9,6.6,6.6C227.7,154,224.8,156.9,221.1,156.9z
			 M221.1,145c-3,0-5.4,2.4-5.4,5.4c0,3,2.4,5.4,5.4,5.4c3,0,5.4-2.4,5.4-5.4c0,0,0,0,0,0C226.5,147.4,224.1,145,221.1,145
			L221.1,145z"/>
		<path class="st29" d="M205.9,129.7c10.8,2,14,6.7,15.4,23.8c1.5,17.8-0.2,23.5-2.5,25.9c-1.6,1.7-10.3,2.2-14.8,1
			c-5.6-1.4-18.3-5.6-24.3-14.4c-7.2-10.4-9.3-24.7-2-30.7C187.9,126.8,201.5,128.9,205.9,129.7z"/>
		<path class="st35" d="M204.5,180.5c4.6,1,11.7,0.4,13.8-0.8c-2.6,0.6-5.3,0.5-7.8-0.3c-2.5-0.7-5-1.7-7.2-3.2L204.5,180.5z"/>
		<path class="st12" d="M223.4,136.7L223.4,136.7c-3,2.1-6.7,2.9-10.3,3.5c0.3,2.9-0.6,5.8-1.5,8.5c-0.6,1.9-2.9,7.9-5.3,4.6
			c-1.8-2.4-3.4-4.6-6.8-4c-5.6,1-6.2,8.1-2.5,12.4s6.9,2.5,6.9,2.5s0.5,7.7-3.6,13.1c0,0-6.1,3.7-14.6,0.9
			c-5.4-1.8-13.1-8.5-15.9-13.8c-7.9-14.5-7.9-28.4,1.6-32.7c0.9-7,6.3-10.2,12.5-11.8c8.6-2.2,17.5,3.2,25.8-0.3
			c1.8-0.8,3.4-1.8,5.1-2.5c1-0.5,2.1-0.5,3.1,0c0.7,0.6,1.2,1.4,1.3,2.4c0.5,1.6,0.4,3.4-0.3,5c1.2-0.7,2.5-1.1,3.9-1.4
			c1.4-0.3,2.8,0,3.9,0.9c1,0.9,1.5,2.1,1.6,3.4C228.6,131.1,226.4,134.6,223.4,136.7z"/>
		<path class="st12" d="M171.2,134.1l-6.5-3.6c0.9-1.8,3.2-2.6,5-1.7c1.8,0.9,2.6,3.2,1.7,5C171.3,133.9,171.3,134,171.2,134.1z"/>
		<rect x="206" y="150.9" transform="matrix(0.983 -0.1834 0.1834 0.983 -24.0977 42.3007)" class="st12" width="21.3" height="1"/>
		<path class="st29" d="M249.9,189.4c-0.6-0.9-1.8-1.1-2.9-1.5c-1.9-0.7-3.4-2.2-5.3-3c-2.1-0.9-4.5-1-6.7-0.4
			c-0.8,0.2-1.5,0.4-2.2,0.7c-1.4,0.6-2.7,1.2-4,2c-5.3,3.1-9.3,10.2-14.5,13.5c-1.9,1.2-3.8,2.3-5.5,3.4l12.5,11.1
			c2-1.7,4-3.2,6.1-4.7c3.1-1.8,6.1-1.9,9.6-2.4c2.4-0.4,4.7-1,7-1.8c0.8-0.1,1.6-0.6,2.1-1.4c0.3-1.1-0.3-2.2-1.3-2.6
			c-1.2-0.3-2.4-0.5-3.6-0.5c-0.9-0.1-3.3,0.4-3.8-0.5c-0.3-0.5,0.1-1.1,0.4-1.5c2.2-2.7,4.9-5.6,8.3-6.4c1.1-0.2,2.1-0.6,3-1.2
			C250,191.7,250.3,190.4,249.9,189.4z"/>
		<path class="st8" d="M175.5,177c-13.2-7.2-25.2-2.6-29.6,6.7c-3.9,8.4-12.2,40.9-12.2,40.9C137.7,232,175.5,177,175.5,177z"/>
		<path class="st8" d="M173.5,179.6l2-2.6c-14.9-7.1-28.3,2.2-40,20.5c-12.7,19.7-19.3,48-19.4,77.9c0,0,2.5,13.4,19.5,20.1
			c18,7.1,43.1,4.1,50.9-14.5c0,0,0.2-18.6,5.8-27.8c3.7-5.9,12.2-19.1,18.6-28.6c5.5-8.2,9.9-27-1.7-33.9c-3-1.8-6.2-3.4-9.4-4.8
			C189.2,189.4,172.1,183.8,173.5,179.6z"/>
		<path class="st36" d="M173.5,179.7l1.9-2.7c-14.9-7.1-28.3,2.2-40,20.5c-12.7,19.7-19.3,48-19.4,77.9c0,0,2.5,13.4,19.5,20.1
			c18,7.1,43.1,4.1,50.9-14.5c0,0,0.2-18.6,5.8-27.8c3.7-5.9,12.2-19.1,18.6-28.6c5.5-8.2,9.9-27-1.7-33.9c-3-1.8-6.2-3.4-9.4-4.8
			C189.2,189.4,172.2,183.9,173.5,179.7z"/>
		<path class="st37" d="M215.7,212.6c0.8-3.6,1-7.2,0.5-10.9l0,0c-2.7,6.4-6.5,12.2-11.3,17.2c-6.1,6.4-13.6,11.4-19.2,18.1
			c-6,7.2-10.3,15.9-15.3,23.7c-2,3.1-4.7,9.2-8.5,9.5c-4.5,0.3-8.9-5.2-11.4-9.1c-4-6.1-7.3-13.7-12.3-19
			c-4.3-4.7-10.9-10.6-16.8-7.9l0,0c-0.4,1.6-0.8,3.1-1.2,4.7s-0.8,3.2-1.1,4.8c0,0.1,0,0.1,0,0.2c-0.3,1.6-0.6,3.3-0.9,4.9
			c0,0.1,0,0.2,0,0.3c-0.3,1.6-0.5,3.2-0.8,4.9c-1,7.1-1.5,14.2-1.5,21.4c0,0,2.5,13.4,19.5,20.1c18,7.1,43.1,4.1,50.9-14.5
			c0,0,0.2-18.6,5.8-27.8c0.6-0.9,1.3-2,2-3.3l0,0l0.1-0.2c0.6-1,1.4-2.1,2.1-3.3c0-0.1,0.1-0.1,0.1-0.2c0,0,0-0.1,0-0.1
			c1.6-2.5,3.4-5.3,5.3-8.2l0.9-1.3c1.8-2.8,3.7-5.6,5.4-8.2l0,0c0.6-0.9,1.2-1.8,1.8-2.6c0.2-0.4,0.5-0.7,0.7-1.1l0,0
			c0.2-0.3,0.4-0.6,0.6-0.9l0.2-0.3l0.4-0.7l0.2-0.3l0.4-0.9c0-0.1,0.1-0.2,0.1-0.2c0.2-0.4,0.4-0.8,0.6-1.2V220v-0.1
			c0.2-0.4,0.3-0.8,0.5-1.1c0-0.1,0.1-0.2,0.1-0.3c0.1-0.4,0.3-0.7,0.4-1.1v-0.1v-0.1c0.2-0.7,0.5-1.4,0.7-2.1l0,0
			c0.2-0.7,0.4-1.5,0.5-2.2v-0.1L215.7,212.6z"/>
		<path class="st29" d="M284.9,230.8c-0.9,1.1-2,2.2-3.1,3.2c-4.6,4.1-9.9,6.1-16.1,10.1c-5,3.3-12.7,8-19.2,12.1
			c-6.6,4.1-13.6,7.3-21,9.7c-6,1.8-9.4,1.9-13-7.8c-1.8-4.8-3.1-9.6-4.7-14.5c-2.2-7.2-4.5-14.4-6.6-21.6c-3.3-10.8-8-19.8,10-29.8
			c7.8,4.5,10.8,6.3,13.3,15.7c2.9,11.2,7.7,33.4,7.7,33.4c6.4-2.2,12.6-4.9,18.6-7.9c2.3-1.1,5.1-1.9,6.7-3.9
			c1.1-1.4,2-2.9,2.9-4.5c0.8-1.4,1.3-2.9,2.2-4.2c1.7-2.4,3.7-4.6,5.9-6.5c0.4-0.4,0.9-0.7,1.4-0.9c0.6,0,1.2,0.3,1.5,0.9
			c0.7,1.2,0,2.3-0.3,3.5c-0.4,1.4-0.8,2.7-1.2,4c4.6-2.7,8.5-6.3,11.5-10.7c0.3-0.4,0.6-0.8,0.9-1.1c0.4-0.3,0.8-0.5,1.3-0.5
			c1.2,0.1,2.4,2.1,2.5,3.2c-0.1,1.1,0,2.3,0.1,3.4c0.3,1,1,1.9,1.3,2.9c0.3,1.1,0.6,2.1,0.7,3.2c0.1,2.4-0.5,4.8-1.8,6.8
			C285.8,229.6,285.4,230.2,284.9,230.8z"/>
		<path class="st8" d="M210.1,191.4c6.9,2.8,11.8,5.9,14.9,16.4s6.5,27.3,6.5,27.3s0.1,3.5-8.3,8.4c-4.8,2.9-10.7,3.7-16.1,2.2
			l-6.3-20.2C200.9,225.4,189.7,198.3,210.1,191.4z"/>
		<path class="st8" d="M169.9,348.9c-5.5-0.3-9.8-4.3-22.9-9.8c-24.2-10.1-42.3-18.1-49.2-30.8s-11.8-49.2-10.1-65
			c0.2-1.8,0.6-3.6,1.2-5.2l-1.7-0.3l4.4-3.8l0,0c4.5-3.7,11.9-0.4,17.4,2.6c15.8,8.6,28.2,17,38,47.2c7.4,22.7,12.2,43.4,22.4,54.5
			"/>
		<path class="st38" d="M88.9,238.1l-1.7-0.3l4.4-3.8l0,0c4.5-3.7,11.9-0.4,17.4,2.6c15.8,8.6,28.2,17,38,47.2
			c7.4,22.7,12.2,43.4,22.4,54.5l0.5,10.5c-5.5-0.3-9.8-4.3-22.9-9.8c-24.2-10.1-42.3-18.1-49.2-30.8s-11.8-49.2-10.1-65
			C87.9,241.6,88.3,239.8,88.9,238.1z"/>
		<path class="st8" d="M104.4,240.6c15.8,8.6,28.2,17,38,47.2s15.1,56.9,34.4,62c0,0-8.7,3.5-35.4-7.8c-8.5-3.6-18.8-10.1-25.6-13.9
			c-13.3-7.5-21.3-13.5-22.6-15.8c-7-12.6-11.8-49.2-10.1-65S96.5,236.3,104.4,240.6z"/>
	</g>
</g>
<g>
	<g id="freepik--speech-bubble--inject-7">
		<path class="st8" d="M68.3,101.8l-4.3-8.2l3.5-10.2v-6.2l-10.8,6.2v6.2l4.6,8c0.1,0.1,0.2,0.2,0.3,0.3l0,0L68.3,101.8z"/>
		<path class="st39" d="M68.3,101.8l-4.3-8.2l3.5-10.2v-6.2l-10.8,6.2v6.2l4.6,8c0.1,0.1,0.2,0.2,0.3,0.3l0,0L68.3,101.8z"/>
		<path class="st40" d="M93.9,27.8c-0.1-2.3-1.3-4.3-3.2-5.6l-2.6-1.5c-2-1-4.4-1-6.4,0L41.4,44c-1.9,1.2-3.1,3.3-3.2,5.6v44.3
			c0.1,2.3,1.3,4.3,3.2,5.6L44,101c2,1,4.4,1,6.4,0l12.9-7.5l4.6,8c0.2,0.3,0.6,0.4,0.9,0.3c0.1-0.1,0.3-0.2,0.3-0.4l4.9-14.1
			l16.6-9.6c1.9-1.3,3.1-3.3,3.2-5.6V27.8z"/>
		<path class="st39" d="M38.2,93.9c0.1,2.3,1.3,4.3,3.2,5.6L44,101c1.8,0.9,4,1,5.9,0.3c-1.5,0.6-2.7-0.3-2.7-2.1V54.9
			c0-1.1,0.4-2.2,0.9-3.2l-9.1-5.2c-0.6,1-0.9,2.1-0.9,3.2V93.9z"/>
		<path class="st16" d="M93.9,26.9c-0.4-1.4-1.6-1.8-3.1-1L50.5,49.3c-1,0.6-1.7,1.4-2.3,2.4l-9.1-5.2c0.5-1,1.3-1.8,2.3-2.4
			l40.3-23.3c2-1,4.4-1,6.4,0l2.6,1.5C92.4,23.3,93.5,25,93.9,26.9z"/>
		<g id="freepik----inject-7">
			<path class="st15" d="M53.2,72.2c0-0.3,0-0.6,0.2-0.9c0.1-0.3,0.3-0.6,0.5-0.9l8.8-14.2c0-0.1,0.1-0.1,0.1-0.2l0.1-0.1
				c0.1-0.1,0.2-0.1,0.3,0c0.1,0.1,0.2,0.3,0.1,0.4V62c0,0.4-0.1,0.8-0.3,1.1c-0.1,0.3-0.3,0.5-0.4,0.8L58,70.7l4.5,2.1
				c0.2,0.1,0.3,0.1,0.4,0.2c0.2,0.1,0.3,0.4,0.3,0.8v3.9c0,0.2,0,0.4-0.1,0.6c-0.1,0.2-0.2,0.3-0.3,0.4h-0.1c0,0-0.1,0-0.1,0
				l-8.8-4c-0.2-0.1-0.3-0.2-0.5-0.3c-0.1-0.2-0.2-0.5-0.2-0.7V72.2z"/>
			<path class="st15" d="M72.2,50.4c0.1-0.3,0.2-0.6,0.3-0.9c0.1-0.3,0.4-0.5,0.6-0.7l2.9-1.7c0.1-0.1,0.2-0.1,0.3,0
				c0.1,0.1,0.2,0.3,0.1,0.4c0,0.1,0,0.2,0,0.3l-7.4,31.5c-0.1,0.3-0.2,0.6-0.3,0.8c-0.1,0.3-0.4,0.5-0.6,0.7l-2.9,1.7
				c-0.1,0.1-0.2,0.1-0.3,0c-0.1-0.1-0.2-0.3-0.1-0.4c0-0.1,0-0.2,0-0.3L72.2,50.4z"/>
			<path class="st15" d="M88.3,55.5c0,0.3,0,0.6-0.2,0.9c-0.1,0.3-0.3,0.6-0.5,0.9l-8.8,14.2c0,0.1-0.1,0.1-0.1,0.2l-0.1,0.1
				c-0.1,0.1-0.2,0.1-0.3,0c-0.1-0.1-0.1-0.3-0.1-0.4v-5.5c0-0.4,0.1-0.8,0.3-1.1c0.2-0.3,0.3-0.5,0.4-0.7l3.8-5.9l-3.8-1.5
				c-0.2-0.1-0.3-0.1-0.4-0.2c-0.2-0.1-0.3-0.4-0.3-0.8V50c0-0.2,0-0.4,0.1-0.6c0.1-0.2,0.2-0.3,0.3-0.4h0.1h0.1l8.8,4
				c0.4,0.1,0.7,0.6,0.6,1L88.3,55.5z"/>
		</g>
	</g>
</g>
<g id="freepik--text-boxes--inject-7">
	<g id="freepik--text-box--inject-7">
		<g>
			<g>
				<g id="freepik--speach-bubble--inject-7">
					<path class="st12" d="M-261.5-41.3l-53.9,31c-0.8,0.5-1.3,1.4-1.3,2.3v30.1c0,1,0.5,1.8,1.3,2.3l5.3,3c0.8,0.4,1.8,0.4,2.7,0
						l53.9-31c0.8-0.5,1.3-1.4,1.3-2.3V-36c0-0.9-0.5-1.8-1.3-2.3l-5.3-3C-259.7-41.7-260.7-41.7-261.5-41.3z"/>
					<path class="st7" d="M-252.2-36.2c-0.1-0.7-0.7-0.9-1.3-0.5l-53.9,31.1c-0.4,0.2-0.7,0.6-1,1l-8-4.6c0.2-0.4,0.5-0.8,0.9-1
						l53.9-31c0.8-0.4,1.8-0.4,2.7,0l5.3,3C-252.8-37.9-252.3-37.1-252.2-36.2z"/>
					<path class="st6" d="M-253.5-36.8l-53.9,31c-0.8,0.5-1.3,1.4-1.3,2.3v30.1c0,0.8,0.6,1.2,1.3,0.8l53.9-31
						c0.8-0.5,1.3-1.4,1.3-2.3V-36C-252.2-36.9-252.8-37.2-253.5-36.8z"/>
				</g>
			</g>
		</g>
		<path class="st41" d="M-295.4,2c0,0.2,0,0.6,0,1s0,0.8,0,1.3s0,0.9,0,1.3s0,0.7,0,1c0,0.3,0.1,0.7,0.1,1c0.1,0.3,0.2,0.5,0.4,0.8
			c0.2,0.2,0.4,0.3,0.6,0.3c0.4,0,0.7-0.1,1-0.3c0.4-0.2,0.7-0.5,1-0.8c0.5-0.5,0.8-1.1,1-1.8c0.1-0.3,0.1-0.6,0.2-0.8
			c0-0.2,0.1-0.5,0.2-0.7c0.1-0.2,0.2-0.3,0.4-0.4l2.2-1.3c0.1-0.1,0.2-0.1,0.3,0c0.1,0.1,0.1,0.2,0.1,0.3c0,0.9-0.2,1.9-0.4,2.8
			c-0.3,0.9-0.6,1.9-1.1,2.7c-0.5,0.8-1,1.6-1.7,2.4c-0.6,0.7-1.3,1.3-2.1,1.8c-0.7,0.4-1.4,0.7-2.2,0.7c-0.6,0-1.2-0.2-1.7-0.6
			c-0.5-0.5-0.9-1-1.1-1.7c-0.3-0.8-0.4-1.7-0.4-2.5c0-0.7,0-1.5,0-2.3s0-1.6,0-2.4c0-1,0.2-2,0.4-3c0.3-1,0.6-2,1.1-2.9
			c0.4-0.9,1-1.7,1.7-2.5c0.6-0.7,1.4-1.4,2.2-1.8c0.6-0.4,1.4-0.6,2.1-0.7c0.6,0,1.2,0.1,1.7,0.4c0.5,0.3,0.9,0.8,1.1,1.4
			c0.3,0.7,0.4,1.5,0.4,2.3c0,0.2,0,0.3-0.1,0.5c-0.1,0.1-0.1,0.3-0.3,0.3l-2.3,1.3c-0.2,0.1-0.3,0.1-0.4,0.1
			c-0.1-0.1-0.2-0.3-0.2-0.5c0-0.2-0.1-0.4-0.2-0.6c-0.1-0.2-0.2-0.3-0.4-0.5c-0.2-0.1-0.4-0.2-0.6-0.2c-0.4,0-0.7,0.2-1,0.3
			c-0.4,0.2-0.7,0.5-1,0.8c-0.3,0.3-0.5,0.7-0.6,1.1c-0.2,0.4-0.3,0.8-0.4,1.2C-295.4,1.1-295.4,1.6-295.4,2z"/>
		<path class="st41" d="M-280.8-13.8c0.6-0.4,1.3-0.6,2-0.7c0.6,0,1.1,0.1,1.6,0.3c0.5,0.2,0.8,0.6,1.1,1.1c0.3,0.5,0.4,1,0.4,1.5
			c0,0.2,0,0.3-0.1,0.5c-0.1,0.1-0.1,0.2-0.3,0.3l-2.3,1.3c-0.1,0.1-0.3,0.1-0.4,0.1c-0.1,0-0.2-0.1-0.3-0.1l-0.2-0.2
			c-0.1-0.1-0.2-0.2-0.3-0.2c-0.2,0-0.3,0-0.5,0c-0.3,0-0.5,0.1-0.8,0.3c-0.2,0.1-0.4,0.3-0.6,0.4c-0.2,0.2-0.4,0.3-0.5,0.5
			c-0.2,0.2-0.3,0.4-0.4,0.6c-0.1,0.2-0.2,0.5-0.2,0.8c0,0.2,0,0.4,0.2,0.6c0.2,0.1,0.4,0.2,0.6,0.2c0.3,0,0.7-0.1,1-0.2l1.6-0.4
			c0.5-0.2,1.1-0.2,1.6-0.2c0.4,0,0.8,0.2,1.2,0.5c0.3,0.3,0.6,0.7,0.7,1.2c0.2,0.7,0.2,1.3,0.2,2c0,0.9-0.1,1.8-0.4,2.6
			c-0.3,0.9-0.6,1.7-1.1,2.4c-0.5,0.8-1,1.5-1.7,2.1c-0.6,0.6-1.4,1.2-2.1,1.6c-0.6,0.4-1.4,0.7-2.1,0.8c-0.6,0.1-1.2,0-1.7-0.3
			c-0.5-0.3-0.9-0.6-1.1-1.1c-0.3-0.5-0.4-1.1-0.4-1.7c0-0.2,0-0.3,0.1-0.5c0-0.1,0.1-0.2,0.3-0.3l2.3-1.3c0.1-0.1,0.2-0.1,0.4-0.1
			c0.1,0,0.2,0.1,0.3,0.1c0.1,0.1,0.1,0.1,0.2,0.2c0.1,0.1,0.2,0.2,0.4,0.3c0.2,0.1,0.4,0.1,0.6,0.1c0.3,0,0.6-0.1,0.9-0.3
			c0.6-0.3,1.1-0.7,1.5-1.2c0.4-0.4,0.6-0.9,0.6-1.5c0-0.2-0.1-0.4-0.2-0.5c-0.2-0.1-0.4-0.1-0.7-0.1c-0.4,0-0.8,0.1-1.1,0.2
			c-0.5,0.1-1,0.3-1.6,0.4c-0.9,0.4-1.9,0.2-2.6-0.4c-0.6-0.9-0.9-2-0.8-3.2c0-0.8,0.1-1.6,0.3-2.4c0.2-0.8,0.6-1.6,1-2.4
			c0.4-0.8,0.9-1.5,1.5-2.1C-282.2-12.8-281.5-13.4-280.8-13.8z"/>
		<path class="st41" d="M-268.3-21c0.6-0.4,1.3-0.6,2-0.7c0.6,0,1.1,0.1,1.6,0.3c0.4,0.3,0.8,0.6,1,1.1c0.2,0.5,0.4,1,0.4,1.5
			c0,0.2,0,0.3-0.1,0.5c0,0.1-0.1,0.2-0.3,0.3l-2.3,1.3c-0.1,0.1-0.3,0.1-0.4,0.1c-0.1,0-0.2-0.1-0.3-0.1l-0.2-0.2
			c-0.1-0.1-0.2-0.2-0.3-0.2c-0.2,0-0.3,0-0.5,0c-0.3,0-0.5,0.1-0.8,0.3c-0.2,0.1-0.4,0.3-0.6,0.4c-0.2,0.2-0.4,0.3-0.5,0.5
			c-0.2,0.2-0.3,0.4-0.4,0.6c-0.1,0.2-0.2,0.5-0.1,0.8c0,0.2,0,0.4,0.2,0.6c0.2,0.1,0.3,0.2,0.6,0.2c0.3,0,0.7-0.1,1-0.2l1.6-0.4
			c0.6-0.2,1.2-0.3,1.8-0.3c0.4,0,0.8,0.2,1.2,0.4c0.3,0.3,0.6,0.7,0.7,1.2c0.2,0.7,0.2,1.3,0.2,2c0,0.9-0.1,1.8-0.4,2.6
			c-0.3,0.9-0.6,1.7-1.1,2.5c-0.5,0.8-1,1.5-1.7,2.1c-0.6,0.6-1.4,1.2-2.1,1.6c-0.6,0.4-1.4,0.7-2.1,0.8c-0.6,0.1-1.2,0-1.7-0.3
			c-0.5-0.3-0.9-0.6-1.1-1.1c-0.3-0.5-0.4-1.1-0.4-1.8c0-0.2,0-0.3,0.1-0.5c0-0.1,0.1-0.2,0.2-0.3l2.3-1.3c0.1-0.1,0.2-0.1,0.4-0.1
			c0.1,0,0.2,0.1,0.3,0.1c0.1,0.1,0.1,0.1,0.2,0.2c0.1,0.1,0.2,0.2,0.4,0.3c0.2,0.1,0.4,0.1,0.6,0.1c0.3,0,0.6-0.1,0.9-0.3
			c0.6-0.3,1.1-0.7,1.5-1.2c0.4-0.4,0.6-0.9,0.6-1.5c0-0.2-0.1-0.4-0.2-0.5c-0.2-0.1-0.4-0.1-0.7-0.1c-0.4,0-0.8,0.1-1.1,0.2
			c-0.5,0.1-1,0.3-1.7,0.4c-0.9,0.4-1.9,0.2-2.6-0.5c-0.6-0.9-0.9-2.1-0.8-3.2c0-0.8,0.1-1.6,0.3-2.4c0.2-0.8,0.6-1.6,1-2.4
			c0.4-0.8,0.9-1.5,1.5-2.2C-269.7-20-269-20.6-268.3-21z"/>
	</g>
	<g>
		<g>
			<g>
				<g>
					<path class="st12" d="M-261.5,21.2l-53.9,31c-0.8,0.5-1.3,1.4-1.3,2.3v30.1c0.1,0.9,0.5,1.8,1.3,2.3l5.3,3
						c0.8,0.4,1.8,0.4,2.7,0l53.9-31c0.8-0.5,1.3-1.4,1.3-2.3V26.5c-0.1-0.9-0.5-1.8-1.3-2.3l-5.3-3
						C-259.7,20.8-260.7,20.8-261.5,21.2z"/>
					<path class="st7" d="M-252.2,26.3c-0.1-0.7-0.7-0.9-1.3-0.5l-53.9,31c-0.4,0.2-0.7,0.6-1,1l-8-4.6c0.2-0.4,0.5-0.7,0.9-0.9
						l53.9-31c0.8-0.4,1.8-0.4,2.7,0l5.3,3C-252.8,24.7-252.3,25.4-252.2,26.3z"/>
					<path class="st6" d="M-253.5,25.7l-53.9,31c-0.8,0.5-1.3,1.4-1.3,2.3v30.1c0,0.9,0.6,1.2,1.3,0.8l53.9-31
						c0.8-0.5,1.3-1.4,1.3-2.3V26.5C-252.2,25.7-252.8,25.3-253.5,25.7z"/>
				</g>
			</g>
		</g>
		<path class="st41" d="M-295.1,57.3c0.1-0.1,0.2-0.1,0.3,0c0.1,0.1,0.2,0.3,0.1,0.4v17.1c0,0.2-0.1,0.4-0.1,0.6
			c-0.1,0.2-0.2,0.3-0.3,0.4l-2.3,1.3c-0.1,0.1-0.2,0.1-0.3,0c-0.1-0.1-0.2-0.3-0.1-0.4v-6.5l-3.8,2.2v6.5c0,0.2,0,0.4-0.1,0.6
			c-0.1,0.2-0.2,0.3-0.3,0.4l-2.3,1.3c-0.1,0.1-0.2,0.1-0.3,0c-0.1-0.1-0.2-0.3-0.1-0.4V63.6c0-0.2,0.1-0.4,0.1-0.6
			c0.1-0.2,0.2-0.3,0.3-0.4l2.3-1.3c0.1-0.1,0.2-0.1,0.3,0c0.1,0.1,0.1,0.3,0.1,0.4v6.4l3.8-2.2v-6.4c0-0.2,0.1-0.4,0.1-0.6
			c0.1-0.2,0.2-0.3,0.3-0.4L-295.1,57.3z"/>
		<path class="st41" d="M-282.6,50c0.1-0.1,0.2-0.1,0.3,0c0.1,0.1,0.2,0.3,0.1,0.4v2.8c0,0.2-0.1,0.4-0.1,0.6
			c-0.1,0.2-0.2,0.3-0.3,0.4l-3,1.7v13.6c0,0.2,0,0.4-0.1,0.6c-0.1,0.2-0.2,0.3-0.3,0.4l-2.3,1.3c-0.1,0.1-0.2,0.1-0.3,0
			c-0.1-0.1-0.2-0.3-0.1-0.4V57.9l-3,1.8c-0.1,0.1-0.2,0.1-0.3,0c-0.1-0.1-0.1-0.3-0.1-0.4v-2.8c0-0.2,0-0.4,0.1-0.6
			c0.1-0.2,0.2-0.3,0.3-0.4L-282.6,50z"/>
		<path class="st41" d="M-274.7,59.3c-0.1-0.1-0.2-0.2-0.2-0.3l-1.6-3.4v8.8c0,0.2-0.1,0.4-0.1,0.6c-0.1,0.2-0.2,0.3-0.3,0.4
			l-2.3,1.3c-0.1,0.1-0.2,0.1-0.3,0c-0.1-0.1-0.2-0.3-0.1-0.4V49.1c0-0.2,0.1-0.4,0.1-0.6c0.1-0.2,0.2-0.3,0.3-0.4l2-1.2
			c0.2-0.1,0.4-0.1,0.5,0c0.1,0.1,0.2,0.2,0.2,0.3l2.8,5.7l2.8-8.9c0.1-0.2,0.1-0.4,0.2-0.6c0.1-0.2,0.3-0.5,0.5-0.6l2-1.2
			c0.1-0.1,0.2-0.1,0.3,0c0.1,0.1,0.2,0.3,0.1,0.4v17.1c0,0.2-0.1,0.4-0.1,0.6c-0.1,0.2-0.2,0.3-0.3,0.4l-2.3,1.3
			c-0.1,0.1-0.2,0.1-0.3,0c-0.1-0.1-0.1-0.3-0.1-0.4v-8.8l-1.6,5.3c-0.1,0.2-0.1,0.4-0.2,0.6c-0.1,0.2-0.2,0.4-0.4,0.5l-1.1,0.6
			C-274.4,59.5-274.6,59.5-274.7,59.3z"/>
		<path class="st41" d="M-256,49c0.1-0.1,0.2-0.1,0.3,0c0.1,0.1,0.2,0.3,0.1,0.4v2.8c0,0.2-0.1,0.4-0.1,0.6
			c-0.1,0.2-0.2,0.3-0.3,0.4l-8,4.6c-0.1,0.1-0.2,0.1-0.3,0c-0.1-0.1-0.2-0.3-0.1-0.4V40.3c0-0.2,0.1-0.4,0.1-0.6
			c0.1-0.2,0.2-0.3,0.3-0.4l2.3-1.3c0.1-0.1,0.2-0.1,0.3,0c0.1,0.1,0.1,0.3,0.1,0.4V52L-256,49z"/>
	</g>
	<g>
		<g>
			<g>
				<g>
					<path class="st12" d="M-261.5,83.7l-53.9,31.1c-0.8,0.5-1.3,1.4-1.3,2.3v30.1c0,0.9,0.5,1.8,1.3,2.3l5.3,3
						c0.8,0.4,1.8,0.4,2.7,0l53.9-31.1c0.8-0.5,1.3-1.4,1.3-2.3V89c0-0.9-0.5-1.8-1.3-2.3l-5.3-3C-259.7,83.3-260.7,83.3-261.5,83.7
						z"/>
					<path class="st7" d="M-252.2,88.8c-0.1-0.7-0.7-0.9-1.3-0.5l-53.9,31c-0.4,0.2-0.7,0.6-1,1l-8-4.6c0.2-0.4,0.5-0.8,0.9-1
						l53.9-31c0.8-0.4,1.8-0.4,2.7,0l5.3,3C-252.8,87.1-252.3,87.9-252.2,88.8z"/>
					<path class="st6" d="M-253.5,88.2l-53.9,31c-0.8,0.5-1.3,1.4-1.3,2.3v30.1c0,0.9,0.6,1.2,1.3,0.8l53.9-31.1
						c0.8-0.5,1.3-1.4,1.3-2.3V89C-252.2,88.2-252.8,87.8-253.5,88.2z"/>
				</g>
			</g>
		</g>
		<path class="st41" d="M-209.3,59.5"/>
	</g>
</g>
</svg>
